<?xml version="1.0" encoding="utf-8"?>
<!-- Generator: Adobe Illustrator 18.0.0, SVG Export Plug-In . SVG Version: 6.00 Build 0)  -->
<!DOCTYPE svg PUBLIC "-//W3C//DTD SVG 1.1//EN" "http://www.w3.org/Graphics/SVG/1.1/DTD/svg11.dtd">
<svg version="1.1" id="Layer_1" xmlns="http://www.w3.org/2000/svg" xmlns:xlink="http://www.w3.org/1999/xlink" x="0px" y="0px"
	 viewBox="0 0 232 232" enable-background="new 0 0 232 232" xml:space="preserve">
<g>
	<rect id="XMLID_2141_" fill="grey" width="232" height="232"/>
	<path id="XMLID_2163_" fill="#FF7058" d="M182.953,152.665c0,0.491-0.2,0.93-0.518,1.248c-0.318,0.322-0.761,0.518-1.248,0.518
		h-65.859c-2.85,0-5.158-2.308-5.158-5.158v-8.938c0-2.846,2.308-5.154,5.154-5.154h65.863c0.973,0,1.766,0.789,1.766,1.766
		s-0.793,1.766-1.766,1.766h-0.891c-1.209,1.798-1.916,3.961-1.916,6.289s0.706,4.098,1.916,5.896h0.891
		C182.16,150.899,182.953,151.688,182.953,152.665z"/>
	<path id="XMLID_2645_" fill="#E7EAEF" d="M178.38,145.003c0,2.328,0.706,4.098,1.916,5.896h-64.968
		c-0.895,0-1.625-0.726-1.625-1.621v-8.942c0-0.895,0.73-1.621,1.625-1.621h64.968C179.086,140.512,178.38,142.675,178.38,145.003z"
		/>
	<path id="XMLID_2646_" opacity="0.5" fill="#ADB3BA" enable-background="new    " d="M179.409,140.304
		c0.255-0.555,0.549-1.088,0.886-1.59h-64.968c-0.884,0-1.605,0.71-1.622,1.59H179.409z"/>
	<g id="XMLID_2648_">
		<path id="XMLID_2657_" fill="#84DBFF" d="M104.712,171.915c0,0.491,0.2,0.93,0.518,1.248c0.318,0.322,0.761,0.518,1.248,0.518
			h65.859c2.85,0,5.158-2.308,5.158-5.158v-8.938c0-2.846-2.308-5.154-5.154-5.154h-65.863c-0.974,0-1.766,0.789-1.766,1.766
			s0.793,1.766,1.766,1.766h0.891c1.209,1.798,1.916,3.961,1.916,6.288c0,2.328-0.707,4.098-1.916,5.896h-0.891
			C105.505,170.149,104.712,170.938,104.712,171.915z"/>
		<path id="XMLID_2672_" fill="#E7EAEF" d="M109.285,164.253c0,2.328-0.707,4.098-1.916,5.896h64.968
			c0.895,0,1.625-0.726,1.625-1.621v-8.942c0-0.895-0.73-1.621-1.625-1.621H107.37C108.579,159.762,109.285,161.925,109.285,164.253
			z"/>
		<path id="XMLID_2689_" opacity="0.5" fill="#ADB3BA" enable-background="new    " d="M108.256,159.554
			c-0.255-0.555-0.549-1.088-0.886-1.59h64.968c0.884,0,1.605,0.71,1.622,1.59H108.256z"/>
	</g>
	<g id="XMLID_2772_">
		<path id="XMLID_2773_" fill="#4CDBC4" d="M99.215,133.502c0,0.491,0.2,0.93,0.518,1.248c0.318,0.322,0.761,0.518,1.248,0.518
			h65.859c2.85,0,5.158-2.308,5.158-5.158v-8.938c0-2.846-2.308-5.154-5.154-5.154h-65.863c-0.974,0-1.767,0.789-1.767,1.766
			s0.793,1.766,1.767,1.766h0.891c1.209,1.798,1.916,3.961,1.916,6.289c0,2.328-0.706,4.098-1.916,5.896h-0.891
			C100.008,131.735,99.215,132.524,99.215,133.502z"/>
		<path id="XMLID_2774_" fill="#E7EAEF" d="M103.788,125.839c0,2.328-0.706,4.098-1.916,5.896h64.968
			c0.895,0,1.625-0.726,1.625-1.621v-8.942c0-0.895-0.73-1.621-1.625-1.621h-64.968
			C103.081,121.349,103.788,123.511,103.788,125.839z"/>
		<path id="XMLID_2775_" opacity="0.5" fill="#ADB3BA" enable-background="new    " d="M102.758,121.141
			c-0.255-0.555-0.549-1.088-0.886-1.59h64.968c0.884,0,1.605,0.71,1.622,1.59H102.758z"/>
	</g>
	<g id="XMLID_2776_">
		<g id="XMLID_2777_">
			<path id="XMLID_2779_" fill="#324A5E" d="M85.352,168.692c-10.174-1.676-19.088-7.214-25.097-15.594
				c-6.008-8.381-8.396-18.598-6.718-28.773c1.676-10.174,7.214-19.088,15.593-25.097c8.38-6.01,18.597-8.394,28.773-6.719
				l-0.866,5.263c-8.77-1.442-17.575,0.61-24.798,5.791c-7.221,5.178-11.995,12.859-13.44,21.627
				c-1.445,8.769,0.612,17.576,5.791,24.798c5.178,7.221,12.859,11.995,21.627,13.44L85.352,168.692z"/>
		</g>
		<g id="XMLID_5575_">
			<g id="XMLID_5585_">
				<g id="XMLID_5586_">
					<path id="XMLID_2795_" fill="#324A5E" d="M73.969,75.602l-9.516,13.224l-4.366-3.142c-0.568-0.409-0.698-1.203-0.289-1.771
						l8.034-11.164c0.409-0.568,1.202-0.698,1.771-0.289L73.969,75.602z"/>
				</g>
			</g>
			<g id="XMLID_5583_">
				<g id="XMLID_5584_">
					<circle id="XMLID_2797_" fill="#FFD05B" cx="100.64" cy="104.83" r="11.187"/>
				</g>
			</g>
			<g id="XMLID_5581_">
				<g id="XMLID_5582_">
					<path id="XMLID_2798_" fill="#F9533D" d="M90.939,83.473l-13.633,18.936l-12.452-8.953c-2.265-1.628-2.781-4.788-1.153-7.054
						l7.732-10.743c1.628-2.265,4.788-2.781,7.054-1.14L90.939,83.473z"/>
				</g>
			</g>
			<g id="XMLID_5579_">
				<g id="XMLID_5580_">
					<path id="XMLID_2799_" fill="#FF7058" d="M115.025,85.879L87.241,124.49c-0.416,0.578-1.308,0.46-1.563-0.205l-8.369-21.872
						L61.923,91.342c-0.644-0.463-0.791-1.365-0.327-2.008l1.986-2.76l16.553,11.912l7.975-11.083L71.557,75.491l1.986-2.76
						c0.463-0.644,1.365-0.791,2.008-0.327l15.385,11.071l23.398,0.987C115.046,84.493,115.441,85.302,115.025,85.879z"/>
				</g>
			</g>
			<g id="XMLID_5577_">
				<g id="XMLID_5578_">
					<polygon id="XMLID_2800_" fill="#F9533D" points="94.318,114.653 80.134,98.484 88.108,87.402 107.946,95.714 					"/>
				</g>
			</g>
		</g>
		<g id="XMLID_2780_">
			<path id="XMLID_2792_" fill="#FF7058" d="M65.554,123.806c0,5.121-4.173,9.261-9.277,9.261c-5.121,0-9.261-4.14-9.261-9.261
				c0-5.104,4.14-9.261,9.261-9.261C61.381,114.545,65.554,118.701,65.554,123.806z"/>
		</g>
		<g id="XMLID_2794_">
			<path id="XMLID_2801_" fill="#324A5E" d="M61.326,123.806c0,2.785-2.27,5.036-5.045,5.036c-2.785,0-5.037-2.251-5.037-5.036
				c0-2.776,2.252-5.036,5.037-5.036C59.056,118.769,61.326,121.03,61.326,123.806z"/>
		</g>
		<g id="XMLID_2802_">
			<path id="XMLID_2806_" fill="#2B3B4E" d="M124.005,174.145h-66.34v-5.773c0-2.755,2.234-4.989,4.989-4.989h56.363
				c2.755,0,4.989,2.234,4.989,4.989L124.005,174.145L124.005,174.145z"/>
		</g>
	</g>
</g>
</svg>
