<?xml version="1.0" encoding="utf-8"?>
<!-- Generator: Adobe Illustrator 18.0.0, SVG Export Plug-In . SVG Version: 6.00 Build 0)  -->
<!DOCTYPE svg PUBLIC "-//W3C//DTD SVG 1.1//EN" "http://www.w3.org/Graphics/SVG/1.1/DTD/svg11.dtd">
<svg version="1.1" id="Layer_1" xmlns="http://www.w3.org/2000/svg" xmlns:xlink="http://www.w3.org/1999/xlink" x="0px" y="0px"
	 viewBox="0 0 232 232" enable-background="new 0 0 232 232" xml:space="preserve">
<g>
	<rect id="XMLID_5916_" fill="#FF7058" width="232" height="232"/>
	<g id="XMLID_8090_">
		<path id="XMLID_8074_" fill="#324A5E" d="M132.008,166.891c0,4.009-3.244,7.254-7.247,7.254c-4.009,0-7.254-3.244-7.254-7.254
			c0-4.003,3.244-7.254,7.254-7.254C128.764,159.638,132.008,162.888,132.008,166.891z"/>
	</g>
	<g id="XMLID_8089_">
		<path id="XMLID_8073_" fill="#2B3B4E" d="M138.108,145.361v21.571c0,0.778-0.626,1.41-1.404,1.41h-23.886
			c-0.778,0-1.41-0.632-1.41-1.41v-21.571H138.108z"/>
	</g>
	<g id="XMLID_7947_">
		<path id="XMLID_8057_" fill="#324A5E" d="M137.855,153.021h-26.187c-3.726,0-6.756-3.031-6.756-6.755v-0.456
			c0-5.558-2.503-10.945-6.867-14.782c-9.335-8.213-14.326-20.056-13.696-32.493c1.041-20.524,17.937-37.36,38.465-38.33
			c0.652-0.031,1.302-0.046,1.944-0.046c22.315,0,40.471,18.156,40.471,40.472c0,11.81-5.143,23.003-14.107,30.707
			c-4.136,3.554-6.508,8.873-6.508,14.591v0.336C144.611,149.99,141.58,153.021,137.855,153.021z M124.756,61.674
			c-0.618,0-1.244,0.015-1.873,0.043c-19.759,0.935-36.022,17.141-37.024,36.896c-0.606,11.972,4.199,23.371,13.185,31.278
			c4.692,4.124,7.382,9.926,7.382,15.919v0.456c0,2.89,2.352,5.24,5.242,5.24h26.187c2.89,0,5.242-2.35,5.242-5.24v-0.336
			c0-6.16,2.565-11.898,7.035-15.739c8.63-7.416,13.581-18.191,13.581-29.559C163.712,79.151,146.237,61.674,124.756,61.674z"/>
	</g>
	<g id="XMLID_8088_">
		<path id="XMLID_8007_" fill="#FFD05B" d="M159.926,100.631c0,10.675-4.756,20.237-12.262,26.688
			c-5.394,4.635-8.354,11.497-8.354,18.612v0.335c0,0.803-0.651,1.454-1.455,1.454h-26.188c-0.803,0-1.454-0.651-1.454-1.454v-0.455
			c0-7.222-3.244-13.995-8.67-18.764c-7.747-6.817-12.471-16.986-11.902-28.243c0.911-17.935,15.488-32.455,33.422-33.302
			C143.249,64.553,159.926,80.647,159.926,100.631z"/>
	</g>
	<g id="XMLID_8019_">
		<path id="XMLID_8072_" fill="#324A5E" d="M140.268,151.645c0,0.449-0.183,0.86-0.481,1.157c-0.297,0.291-0.702,0.474-1.151,0.474
			H110.88c-0.898,0-1.632-0.727-1.632-1.632c0-0.449,0.183-0.854,0.481-1.151c0.291-0.291,0.702-0.474,1.151-0.474h27.756
			C139.534,150.02,140.268,150.747,140.268,151.645z"/>
	</g>
	<g id="XMLID_8017_">
		<path id="XMLID_8071_" fill="#324A5E" d="M140.268,157.807c0,0.449-0.183,0.86-0.481,1.157c-0.297,0.291-0.702,0.474-1.151,0.474
			H110.88c-0.898,0-1.632-0.727-1.632-1.632c0-0.449,0.183-0.854,0.481-1.151c0.291-0.291,0.702-0.474,1.151-0.474h27.756
			C139.534,156.182,140.268,156.909,140.268,157.807z"/>
	</g>
	<g id="XMLID_8009_">
		<path id="XMLID_8069_" fill="#324A5E" d="M140.268,163.97c0,0.449-0.183,0.86-0.481,1.157c-0.297,0.291-0.702,0.474-1.151,0.474
			H110.88c-0.898,0-1.632-0.727-1.632-1.632c0-0.449,0.183-0.854,0.481-1.151c0.291-0.291,0.702-0.474,1.151-0.474h27.756
			C139.534,162.345,140.268,163.072,140.268,163.97z"/>
	</g>
	<g id="XMLID_8034_">
		<g id="XMLID_8036_">
			<g id="XMLID_8038_">
				<path id="XMLID_8105_" fill="#FFFFFF" d="M147.796,98.952l-4.112-0.517c-0.122-1.174-0.349-2.316-0.675-3.413l3.599-2.049
					c0.104-0.059,0.145-0.181,0.1-0.29l-0.952-2.303c-0.045-0.109-0.163-0.168-0.277-0.132l-3.994,1.097
					c-0.558-1.024-1.206-1.99-1.94-2.892l2.548-3.273c0.072-0.095,0.063-0.227-0.018-0.308l-1.759-1.759
					c-0.086-0.086-0.218-0.095-0.308-0.023l-3.277,2.548c-0.898-0.73-1.863-1.378-2.888-1.936l1.097-3.994
					c0.032-0.118-0.027-0.236-0.136-0.281l-2.298-0.952c-0.109-0.045-0.236,0-0.29,0.1l-2.049,3.604
					c-1.097-0.326-2.239-0.553-3.414-0.675l-0.517-4.116c-0.014-0.118-0.113-0.204-0.231-0.204h-2.489
					c-0.118,0-0.218,0.086-0.231,0.204l-0.517,4.116c-1.174,0.122-2.317,0.349-3.414,0.675l-2.049-3.604
					c-0.054-0.1-0.181-0.145-0.29-0.1l-2.298,0.952c-0.109,0.045-0.168,0.163-0.136,0.281l1.097,3.994
					c-1.024,0.558-1.99,1.206-2.892,1.936l-3.273-2.548c-0.091-0.073-0.222-0.063-0.308,0.023l-1.759,1.759
					c-0.082,0.082-0.091,0.213-0.018,0.308l2.543,3.273c-0.73,0.902-1.378,1.868-1.936,2.892l-3.994-1.097
					c-0.113-0.036-0.231,0.023-0.277,0.132l-0.952,2.303c-0.045,0.109-0.005,0.231,0.1,0.29l3.599,2.049
					c-0.326,1.097-0.553,2.239-0.675,3.413l-4.112,0.517c-0.118,0.009-0.204,0.113-0.204,0.227v2.493
					c0,0.113,0.086,0.218,0.204,0.227l4.112,0.517c0.122,1.174,0.349,2.316,0.675,3.413l-3.599,2.049
					c-0.104,0.059-0.145,0.181-0.1,0.29l0.952,2.303c0.045,0.109,0.163,0.168,0.277,0.132l3.994-1.097
					c0.558,1.025,1.206,1.99,1.936,2.892l-2.543,3.273c-0.073,0.095-0.063,0.227,0.018,0.308l1.759,1.759
					c0.086,0.086,0.218,0.095,0.308,0.023l3.273-2.548c0.902,0.73,1.868,1.378,2.892,1.936l-1.097,3.994
					c-0.032,0.118,0.027,0.236,0.136,0.281l2.298,0.952c0.109,0.045,0.236,0,0.29-0.1l2.049-3.604
					c1.097,0.326,2.239,0.553,3.414,0.675l0.517,4.116c0.014,0.118,0.113,0.204,0.231,0.204h2.489c0.118,0,0.218-0.086,0.231-0.204
					l0.517-4.116c1.174-0.122,2.317-0.349,3.414-0.675l2.049,3.604c0.054,0.1,0.181,0.145,0.29,0.1l2.298-0.952
					c0.109-0.045,0.168-0.163,0.136-0.281l-1.097-3.994c1.025-0.558,1.99-1.206,2.888-1.936l3.277,2.548
					c0.091,0.072,0.222,0.063,0.308-0.023l1.759-1.759c0.082-0.082,0.091-0.213,0.018-0.308l-2.548-3.273
					c0.734-0.902,1.383-1.868,1.94-2.892l3.994,1.097c0.113,0.036,0.231-0.023,0.277-0.132l0.952-2.303
					c0.045-0.109,0.005-0.231-0.1-0.29l-3.599-2.049c0.326-1.097,0.553-2.239,0.675-3.413l4.112-0.517
					c0.118-0.009,0.204-0.113,0.204-0.227v-2.493C147.999,99.065,147.913,98.961,147.796,98.952z M122.944,87.243v7.525
					c-1.822,0.58-3.259,2.022-3.844,3.844h-7.521C112.378,92.714,117.047,88.045,122.944,87.243z M122.944,113.608
					c-5.897-0.802-10.567-5.472-11.365-11.369h7.521c0.585,1.822,2.022,3.264,3.844,3.844
					C122.944,106.083,122.944,113.608,122.944,113.608z M124.758,102.887c-1.355,0-2.457-1.102-2.457-2.461
					c0-1.355,1.102-2.457,2.457-2.457c1.36,0,2.462,1.102,2.462,2.457C127.219,101.785,126.118,102.887,124.758,102.887z
					 M126.576,113.608v-7.525c1.822-0.58,3.259-2.022,3.844-3.844h7.521C137.143,108.136,132.473,112.805,126.576,113.608z
					 M130.42,98.612c-0.585-1.822-2.022-3.264-3.844-3.844v-7.525c5.898,0.802,10.567,5.472,11.365,11.369H130.42z"/>
			</g>
		</g>
	</g>
	<g id="XMLID_7900_">
		<g id="XMLID_7907_">
			<rect id="XMLID_8053_" x="67.27" y="60.16" fill="#324A5E" width="57.486" height="1.515"/>
		</g>
		<g id="XMLID_7916_">
			<path id="XMLID_8068_" fill="#FFFFFF" d="M71.105,61.176c0,2.13-1.717,3.846-3.847,3.846c-2.108,0-3.825-1.717-3.825-3.846
				c0-2.108,1.717-3.825,3.825-3.825C69.388,57.352,71.105,59.068,71.105,61.176z"/>
		</g>
	</g>
	<g id="XMLID_7948_">
		<g id="XMLID_7951_">
			<g id="XMLID_7955_">
				<rect id="XMLID_8051_" x="164.243" y="42.044" fill="#324A5E" width="1.515" height="57.486"/>
			</g>
			<g id="XMLID_7952_">
				<path id="XMLID_8066_" fill="#FFFFFF" d="M164.741,45.879c-2.13,0-3.846-1.717-3.846-3.846c0-2.108,1.717-3.825,3.846-3.825
					c2.108,0,3.825,1.717,3.825,3.825C168.566,44.163,166.849,45.879,164.741,45.879z"/>
			</g>
		</g>
		<g id="XMLID_7943_">
			<path id="XMLID_8064_" fill="#FFFFFF" d="M168.566,98.601c0,2.13-1.717,3.847-3.846,3.847c-2.108,0-3.825-1.717-3.825-3.847
				c0-2.108,1.717-3.825,3.825-3.825C166.85,94.776,168.566,96.493,168.566,98.601z"/>
		</g>
	</g>
	<g id="XMLID_8021_">
		<g id="XMLID_8024_">
			<g id="XMLID_8028_">
				<rect id="XMLID_8032_" x="84.023" y="99.53" fill="#324A5E" width="1.515" height="57.486"/>
			</g>
			<g id="XMLID_8026_">
				<path id="XMLID_8062_" fill="#FFFFFF" d="M85.04,103.366c2.13,0,3.846-1.717,3.846-3.846c0-2.108-1.717-3.825-3.846-3.825
					c-2.108,0-3.825,1.717-3.825,3.825C81.215,101.649,82.932,103.366,85.04,103.366z"/>
			</g>
		</g>
		<g id="XMLID_8023_">
			<path id="XMLID_8060_" fill="#FFFFFF" d="M81.215,156.087c0,2.13,1.717,3.847,3.846,3.847c2.108,0,3.825-1.717,3.825-3.847
				c0-2.108-1.717-3.825-3.825-3.825C82.932,152.263,81.215,153.98,81.215,156.087z"/>
		</g>
	</g>
	<g id="XMLID_7954_">
		<path id="XMLID_8055_" fill="#FFFFFF" d="M128.596,61.176c0,2.13-1.717,3.846-3.847,3.846c-2.108,0-3.825-1.717-3.825-3.846
			c0-2.108,1.717-3.825,3.825-3.825C126.879,57.352,128.596,59.068,128.596,61.176z"/>
	</g>
</g>
</svg>
