<?xml version="1.0" encoding="utf-8"?>
<!-- Generator: Adobe Illustrator 18.0.0, SVG Export Plug-In . SVG Version: 6.00 Build 0)  -->
<!DOCTYPE svg PUBLIC "-//W3C//DTD SVG 1.1//EN" "http://www.w3.org/Graphics/SVG/1.1/DTD/svg11.dtd">
<svg version="1.1" id="Layer_1" xmlns="http://www.w3.org/2000/svg" xmlns:xlink="http://www.w3.org/1999/xlink" x="0px" y="0px"
	 viewBox="0 0 232 232" enable-background="new 0 0 232 232" xml:space="preserve">
<g>
	<rect id="XMLID_1415_" fill="#4CDBC4" width="232" height="232"/>
	<path id="XMLID_4148_" fill="#FFD05B" d="M54.604,138.738l15.721,12.535l2.699-2.57c0.655-0.624,1.365-1.187,2.121-1.682
		l17.888-11.712l-21.707-19.142c0,0,6.452-7.113,3.168-10.572c-0.797-0.836-2.186-0.632-2.769,0.369
		c-1.069,1.827-3.343,4.887-7.511,7.122c0,0-4.167,2.402-5.276,16.197C58.651,132.849,57.133,136.209,54.604,138.738L54.604,138.738
		z"/>
	<path id="XMLID_3397_" fill="#FFD05B" d="M177.403,138.744l-15.725,12.523l-2.706-2.565c-0.655-0.619-1.362-1.185-2.123-1.68
		l-17.882-11.709l21.703-19.138c0,0-6.456-7.128-3.166-10.577c0.778-0.814,2.122-0.654,2.724,0.301
		c0.018,0.018,0.035,0.053,0.053,0.071c0.584,0.991,1.521,2.352,2.936,3.75c1.185,1.167,2.671,2.353,4.564,3.361
		c0,0,4.174,2.406,5.289,16.202C173.352,132.854,174.873,136.215,177.403,138.744z"/>
	<path id="XMLID_4152_" fill="#324A5E" d="M160.632,83.736v49.775c0,1.608-1.306,2.923-2.923,2.923H74.248
		c-1.617,0-2.923-1.316-2.923-2.923V83.736c0-1.618,1.306-2.923,2.923-2.923h83.461C159.326,80.813,160.632,82.119,160.632,83.736z"
		/>
	<rect id="XMLID_4154_" x="79.607" y="84.267" fill="#FF7058" width="72.742" height="48.713"/>
	<path id="XMLID_4156_" fill="#2B3B4E" d="M158.385,104.753v7.742c0,1.036-0.852,1.888-1.9,1.888c-1.036,0-1.888-0.852-1.888-1.888
		v-7.742c0-1.048,0.852-1.888,1.888-1.888C157.533,102.864,158.385,103.705,158.385,104.753z"/>
	<path id="XMLID_4158_" fill="#FFD05B" d="M160.675,116.171c0,0-6.451-7.121-3.167-10.571c0.798-0.837,2.181-0.635,2.766,0.365
		c1.067,1.826,3.348,4.887,7.511,7.124L160.675,116.171z"/>
	<path id="XMLID_1484_" fill="#FFFFFF" d="M182.429,140.021l-17.286,17.286l-5.752-5.752c-0.379-0.379-0.379-1.001,0-1.38
		l15.896-15.896c0.389-0.389,1.011-0.389,1.39,0L182.429,140.021z"/>
	<path id="XMLID_1467_" fill="#324A5E" d="M186.681,142.364l-19.592,19.592l-7.283-7.283c-0.379-0.379-0.379-1.001,0-1.38
		l18.203-18.203c0.389-0.389,1.011-0.389,2.921,1.531L186.681,142.364z"/>
	<path id="XMLID_1120_" d="M176.954,152.087l-9.869,9.869l-7.276-7.285c-0.383-0.374-0.383-1.001,0-1.375l9.173-9.182
		L176.954,152.087z"/>
	<path id="XMLID_1457_" fill="#FFD05B" d="M71.325,116.171c0,0,6.451-7.121,3.167-10.571c-0.798-0.837-2.181-0.635-2.766,0.365
		c-1.067,1.826-3.348,4.887-7.511,7.124L71.325,116.171z"/>
	<path id="XMLID_4166_" fill="#FFFFFF" d="M49.57,140.021l17.286,17.286l5.752-5.752c0.379-0.379,0.379-1.001,0-1.38l-15.896-15.896
		c-0.389-0.389-1.011-0.389-1.39,0L49.57,140.021z"/>
	<path id="XMLID_4168_" fill="#324A5E" d="M45.319,142.364l19.592,19.592l7.283-7.283c0.379-0.379,0.379-1.001,0-1.38L53.991,135.09
		c-0.389-0.389-1.011-0.389-2.921,1.531L45.319,142.364z"/>
	<path id="XMLID_1127_" opacity="0.1" enable-background="new    " d="M72.195,154.672l-7.285,7.285l-9.26-9.26l7.972-7.972
		l8.572,8.573C72.57,153.671,72.57,154.298,72.195,154.672z"/>
	<path id="XMLID_3395_" fill="#FFFFFF" d="M163.217,109.718c-0.248-0.018-0.513-0.071-0.796-0.159
		c-1.486-0.442-2.689-1.663-2.689-2.724c0-0.407,0.177-0.725,0.495-0.938c0.018,0.018,0.035,0.053,0.053,0.071
		C160.865,106.959,161.802,108.321,163.217,109.718z"/>
	<path id="XMLID_3342_" fill="#FFFFFF" d="M68.776,109.718c0.248-0.018,0.513-0.071,0.796-0.159
		c1.486-0.442,2.689-1.663,2.689-2.724c0-0.407-0.177-0.725-0.495-0.938c-0.018,0.018-0.035,0.053-0.053,0.071
		C71.129,106.959,70.191,108.321,68.776,109.718z"/>
	<g id="XMLID_3318_">
		<path id="XMLID_2312_" fill="#FFFFFF" d="M116.076,73.246v45.064H81.891c-1.262,0-2.28-1.018-2.28-2.28V72.341
			c0-1.271,1.027-2.298,2.28-2.298h30.983C114.64,70.044,116.076,71.488,116.076,73.246z"/>
		<path id="XMLID_3348_" fill="#E7EAEF" d="M116.083,73.243v45.07h-3.153V70.064C114.672,70.089,116.083,71.501,116.083,73.243z"/>
		<g id="XMLID_3337_">
			<path id="XMLID_3347_" fill="#E7EAEF" d="M110.229,76.746h-24.77c-0.279,0-0.505-0.226-0.505-0.505v-0.567
				c0-0.279,0.226-0.505,0.505-0.505h24.77c0.279,0,0.505,0.226,0.505,0.505v0.567C110.734,76.52,110.508,76.746,110.229,76.746z"/>
			<path id="XMLID_3346_" fill="#E7EAEF" d="M110.229,81.402h-24.77c-0.279,0-0.505-0.226-0.505-0.505V80.33
				c0-0.279,0.226-0.505,0.505-0.505h24.77c0.279,0,0.505,0.226,0.505,0.505v0.567C110.734,81.176,110.508,81.402,110.229,81.402z"
				/>
			<path id="XMLID_3345_" fill="#E7EAEF" d="M110.229,86.058h-24.77c-0.279,0-0.505-0.226-0.505-0.505v-0.567
				c0-0.279,0.226-0.505,0.505-0.505h24.77c0.279,0,0.505,0.226,0.505,0.505v0.567C110.734,85.832,110.508,86.058,110.229,86.058z"
				/>
			<path id="XMLID_3344_" fill="#E7EAEF" d="M110.229,90.714h-24.77c-0.279,0-0.505-0.226-0.505-0.505v-0.567
				c0-0.279,0.226-0.505,0.505-0.505h24.77c0.279,0,0.505,0.226,0.505,0.505v0.567C110.734,90.488,110.508,90.714,110.229,90.714z"
				/>
			<path id="XMLID_3343_" fill="#E7EAEF" d="M110.229,95.37h-24.77c-0.279,0-0.505-0.226-0.505-0.505v-0.567
				c0-0.279,0.226-0.505,0.505-0.505h24.77c0.279,0,0.505,0.226,0.505,0.505v0.567C110.734,95.144,110.508,95.37,110.229,95.37z"/>
			<path id="XMLID_3340_" fill="#E7EAEF" d="M110.229,100.026h-24.77c-0.279,0-0.505-0.226-0.505-0.505v-0.567
				c0-0.279,0.226-0.504,0.505-0.504h24.77c0.279,0,0.505,0.226,0.505,0.504v0.567C110.734,99.8,110.508,100.026,110.229,100.026z"
				/>
			<path id="XMLID_3339_" fill="#E7EAEF" d="M110.229,104.682h-24.77c-0.279,0-0.505-0.226-0.505-0.505v-0.567
				c0-0.279,0.226-0.505,0.505-0.505h24.77c0.279,0,0.505,0.226,0.505,0.505v0.567C110.734,104.456,110.508,104.682,110.229,104.682
				z"/>
			<path id="XMLID_3338_" fill="#E7EAEF" d="M98.622,109.338H85.459c-0.279,0-0.505-0.226-0.505-0.505v-0.567
				c0-0.279,0.226-0.505,0.505-0.505h13.163c0.279,0,0.505,0.226,0.505,0.505v0.567C99.127,109.112,98.901,109.338,98.622,109.338z"
				/>
		</g>
		<g id="XMLID_3321_">
			<path id="XMLID_2367_" fill="#FFFFFF" d="M152.35,72.593v43.437c0,1.262-1.018,2.28-2.28,2.28h-33.994V73.49
				c0-1.749,1.419-3.185,3.185-3.185h30.8C151.323,70.304,152.35,71.331,152.35,72.593z"/>
			<g id="XMLID_3322_">
				<path id="XMLID_3335_" fill="#E7EAEF" d="M121.923,76.746h24.77c0.279,0,0.505-0.226,0.505-0.505v-0.567
					c0-0.279-0.226-0.505-0.505-0.505h-24.77c-0.279,0-0.505,0.226-0.505,0.505v0.567C121.418,76.52,121.644,76.746,121.923,76.746z
					"/>
				<path id="XMLID_3333_" fill="#E7EAEF" d="M121.923,81.402h24.77c0.279,0,0.505-0.226,0.505-0.505V80.33
					c0-0.279-0.226-0.505-0.505-0.505h-24.77c-0.279,0-0.505,0.226-0.505,0.505v0.567C121.418,81.176,121.644,81.402,121.923,81.402
					z"/>
				<path id="XMLID_3332_" fill="#E7EAEF" d="M121.923,86.058h24.77c0.279,0,0.505-0.226,0.505-0.505v-0.567
					c0-0.279-0.226-0.505-0.505-0.505h-24.77c-0.279,0-0.505,0.226-0.505,0.505v0.567C121.418,85.832,121.644,86.058,121.923,86.058
					z"/>
				<path id="XMLID_3331_" fill="#E7EAEF" d="M121.923,90.714h24.77c0.279,0,0.505-0.226,0.505-0.505v-0.567
					c0-0.279-0.226-0.505-0.505-0.505h-24.77c-0.279,0-0.505,0.226-0.505,0.505v0.567C121.418,90.488,121.644,90.714,121.923,90.714
					z"/>
				<path id="XMLID_3330_" fill="#E7EAEF" d="M121.923,95.37h24.77c0.279,0,0.505-0.226,0.505-0.505v-0.567
					c0-0.279-0.226-0.505-0.505-0.505h-24.77c-0.279,0-0.505,0.226-0.505,0.505v0.567C121.418,95.144,121.644,95.37,121.923,95.37z"
					/>
				<path id="XMLID_3328_" fill="#E7EAEF" d="M121.923,100.026h24.77c0.279,0,0.505-0.226,0.505-0.505v-0.567
					c0-0.279-0.226-0.504-0.505-0.504h-24.77c-0.279,0-0.505,0.226-0.505,0.504v0.567C121.418,99.8,121.644,100.026,121.923,100.026
					z"/>
				<path id="XMLID_3327_" fill="#E7EAEF" d="M121.923,104.682h24.77c0.279,0,0.505-0.226,0.505-0.505v-0.567
					c0-0.279-0.226-0.505-0.505-0.505h-24.77c-0.279,0-0.505,0.226-0.505,0.505v0.567
					C121.418,104.456,121.644,104.682,121.923,104.682z"/>
				<path id="XMLID_3323_" fill="#E7EAEF" d="M133.53,109.338h13.163c0.279,0,0.505-0.226,0.505-0.505v-0.567
					c0-0.279-0.226-0.505-0.505-0.505H133.53c-0.279,0-0.505,0.226-0.505,0.505v0.567
					C133.025,109.112,133.251,109.338,133.53,109.338z"/>
			</g>
		</g>
		<path id="XMLID_3319_" opacity="0.1" fill="#ADB3BA" enable-background="new    " d="M119.211,70.064v48.248h-3.14v-45.07
			C116.07,71.501,117.469,70.089,119.211,70.064z"/>
	</g>
</g>
</svg>
