<?xml version="1.0" encoding="utf-8"?>
<!-- Generator: Adobe Illustrator 18.0.0, SVG Export Plug-In . SVG Version: 6.00 Build 0)  -->
<!DOCTYPE svg PUBLIC "-//W3C//DTD SVG 1.1//EN" "http://www.w3.org/Graphics/SVG/1.1/DTD/svg11.dtd">
<svg version="1.1" id="Layer_1" xmlns="http://www.w3.org/2000/svg" xmlns:xlink="http://www.w3.org/1999/xlink" x="0px" y="0px"
	 viewBox="0 0 232 232" enable-background="new 0 0 232 232" xml:space="preserve">
<g>
	<rect fill="#FFD05B" width="232" height="232"/>
	<g id="XMLID_2601_">
		<g id="XMLID_2588_">
			<path id="XMLID_2590_" fill="#324A5E" d="M94.86,149.139h-1.523v-1.047c0-4.453,3.622-8.076,8.076-8.076h45.779
				c1.418,0,2.571-1.153,2.571-2.571s-1.153-2.571-2.571-2.571H85.987c-4.619,0-8.378-3.758-8.378-8.378s3.759-8.378,8.378-8.378
				h35.098v1.523H85.987c-3.78,0-6.855,3.075-6.855,6.855c0,3.78,3.075,6.855,6.855,6.855h61.205c2.257,0,4.094,1.837,4.094,4.094
				c0,2.257-1.837,4.094-4.094,4.094h-45.779c-3.613,0-6.553,2.94-6.553,6.553V149.139z"/>
		</g>
		<g id="XMLID_2380_">
			<path id="XMLID_2467_" fill="#84DBFF" d="M101.138,72.403c-12.966,12.971-12.966,34.074-0.002,47.041
				c12.971,12.97,34.069,12.961,47.037-0.004c12.967-12.966,12.972-34.064,0-47.035C135.206,59.439,114.106,59.439,101.138,72.403z"
				/>
			<g id="XMLID_2387_">
				<g id="XMLID_2465_">
					<path id="XMLID_2466_" fill="#54C0EB" d="M154.333,81.46c0,0,0.443,0.778,1.21,2.698c0.509,1.28,1.416,4.868,1.378,4.999
						c-0.041,0.132-0.148,0.699-0.306,0.973c-0.158,0.263-0.546,0.985-0.669,0.993c-0.122,0.011-0.64-0.052-0.899-0.443
						c0,0,0,0-0.462-0.378c-0.234-0.189-0.234-0.189-0.234-0.189c-0.254-0.019-0.676-0.254-0.943-0.52
						c-0.262-0.263-0.902-0.942-0.815-1.106c0.087-0.167-0.022-1.006-0.289-1.492c0,0,0,0-0.04-0.426
						c-0.023-0.343-0.023-0.343-0.023-0.343c0.233,0.067,0.321,0.013,0.185-0.125c-0.134-0.133-0.099-0.61-0.036-0.789
						c0.061-0.185,0.441-0.471,0.347-0.679c-0.093-0.206-0.286-0.921-0.208-1.116c0.074-0.194,0.285-0.798,0.179-0.916
						c-0.101-0.114,0.129-0.651,0.419-0.956C153.416,81.34,154.618,81,154.333,81.46z"/>
				</g>
				<g id="XMLID_2463_">
					<path id="XMLID_2464_" fill="#54C0EB" d="M92.678,104.54c-0.666-3.028-1.156-5.523-1.084-5.548
						c0.073-0.025,0.241-0.264,0.204-0.467c-0.038-0.206,0.496-0.624,0.614-0.528c0.114,0.092,0.265-0.13,0.096-0.449
						c-0.17-0.316-0.736-0.514-0.772-0.606c-0.033-0.095-0.188-0.38-0.033-0.41c0.153-0.026,0.75-0.336,1.022-0.263
						c0.271,0.072,0.975,0.202,0.988,0.368c0.013,0.169,0.43,0.177,0.412-0.011c-0.019-0.188-0.285-0.64-0.375-0.579
						c-0.088,0.066-0.657-0.133-1.062-0.53c-0.401-0.396-0.485-1.447-0.335-1.488c0.15-0.037,0.641,0.028,0.722-0.307
						c0.076-0.34,0.73-0.138,0.813-0.303c0.081-0.162,0.638-0.601,0.761-0.629c0.119-0.028,0.579,0.167,0.711,0.037
						c0.131-0.129,0.613-0.425,0.79-0.363c0.174,0.057,0.629,0.308,0.619,0.422c-0.01,0.107,0.295,0.356,0.478,0.298
						c0.182-0.059,0.731-0.254,0.829-0.167c0.097,0.084,0.367-0.03,0.402,0.082c0.038,0.113,0.372,0.516,0.337,0.622
						c-0.04,0.103,0.047,0.407-0.137,0.405c-0.188-0.004-0.543,0.29-0.402,0.319c0.142,0.028,0.593,0.437,0.67,0.651
						c0.082,0.217,0.451,0.738,0.039,0.789c-0.418,0.05-1.64,0.479-1.813,0.668c-0.172,0.188-0.425-0.361-0.144-1.11
						c0,0,0,0-0.592-0.753c-0.352-0.438-0.352-0.438-0.352-0.438c-0.332,0.063-0.774,0.159-0.986,0.214
						c-0.206,0.056-0.38,0.563-0.55,0.61c-0.167,0.053-0.484,0.396-0.363,0.353c0.122-0.043,0.551,0.113,0.681,0.292
						s0.517,0.874,0.404,1.116c-0.11,0.249-0.544,1.124-0.46,1.155c0.079,0.03,0.265,0.443,0.231,0.707
						c-0.036,0.258,0.119,1.16,0.151,1.393c0.035,0.235,0.029,0.913,0.119,0.997c0.094,0.083,0.079,0.238,0.23,0.193
						c0.153-0.051,0.827,0.431,1.098,0.357c0.281-0.073,1.027-0.18,1.048-0.293c0.018-0.115,0.347-0.108,0.309-0.228
						c-0.033-0.119,0.498-0.04,0.762,0.148c0.265,0.189,0.755,0.217,0.541-0.063c-0.213-0.284-0.352-0.912-0.395-0.825
						c-0.044,0.085-0.338-0.098-0.237-0.185c0.098-0.083,0.069-0.626-0.211-1.011c-0.275-0.382-1.515-1.568-1.494-1.662
						c0.019-0.089,0.385-0.277,0.527-0.236c0.145,0.049,0.392-0.332,0.612-0.275c0.212,0.058,0.725-0.395,0.889-0.224
						c0.175,0.169,0.71,0.53,0.828,0.434c0.116-0.097,0.362-0.368,0.281-0.468c-0.08-0.097,0.004-0.263,0.291-0.156
						c0.286,0.108,1.089,0.156,1.159,0.24c0.077,0.082,0.33,0.298,0.544,0.292c0.22-0.006,0.839,0.347,0.862,0.232
						c0.02-0.118,0.503-0.053,0.683,0.111c0.177,0.164,1.026,0.973,1.217,1.067c0.192,0.087,0.76,0.015,0.868,0.141
						c0.11,0.129,0.287,0.464,0.096,0.533s-0.27,0.391-0.346,0.351c-0.084-0.041-0.337-0.104-0.389,0.034
						c-0.046,0.135-0.505,0.173-0.584-0.187c-0.074-0.361-0.475-1.044-0.513-0.69c-0.038,0.358-0.676,0.758-0.576,0.797
						c0.094,0.029,0.295,0.434,0.206,0.586c-0.085,0.148,0.205,0.557,0.388,0.546c0.187-0.014,0.638,0.139,0.598,0.405
						c-0.041,0.256-0.217,0.86-0.189,0.773c0.028-0.088-0.382-0.117-0.531,0.183c-0.143,0.298-0.176,1.12-0.052,1.14
						c0.124,0.017,0.42,0.53,0.342,0.744c-0.08,0.208-0.241,0.963-0.198,1.197c0.041,0.233,0.755,0.815,0.726,0.9
						c-0.025,0.096-0.174,0.372-0.081,0.426c0.099,0.056,0.286,0.758,0.177,1.136c-0.107,0.379,0.388,1.472,0.509,1.52
						c0.789,0.272,1.149,1.129,0.946,1.196c-0.241,0.082-1.121-0.351-1.345-0.269c-0.226,0.089-0.796,0.565-0.777,0.628
						c0.014,0.063-0.02,0.284-0.25,0.335c-0.232,0.053-0.831,0.731-0.867,0.927c-0.039,0.195,0.166,1.34,0.694,2.105
						c0.53,0.764,1.873,0.119,1.772-0.075c-0.101-0.193-0.131-0.769-0.005-0.867c0.123-0.097,0.697-0.398,0.871-0.138
						c0.175,0.261,0.831,0.782,1.059,0.578c0.233-0.207,1.077,0.072,1.308,0.406c0.232,0.328,1.064,0.72,1.084,0.553
						c0.022-0.17,0.256-0.645,0.393-0.691c0.138-0.049,0.539,0.016,0.556-0.243c0.02-0.265-0.182-1.079-0.126-1.198
						c0.06-0.119,0.127-0.425,0.269-0.402c0.144,0.028,0.442-0.165,0.359-0.279c-0.081-0.112,0.38-0.389,0.606-0.406
						c0.233-0.011,0.857,0.142,0.854,0.064c-0.011-0.374,1.857-0.752,2.149-0.604c0.242,0.114,1.292,0.046,1.822-0.064
						c0.529-0.11,1.269,0.437,1.393,0.413c0.124-0.022,0.604-0.334,0.813-0.438c0.208-0.103,0.865-0.136,0.964-0.239
						c0.101-0.099,0.551-0.445,0.775-0.541c0.228-0.093,0.843-0.099,0.84-0.24c-0.001-0.142,0.599-0.081,0.954,0.099l0.558,0.558
						c0.403,0.685,0.534,0.568,0.594,1.513c0.016,0.168,0.303,0.693,0.303,0.756c0.004,0.063-0.069,0.313,0.021,0.426
						c0.095,0.116,0.371,0.693,0.65,1.042c0.285,0.352,1.027,1.37,0.979,1.503c-0.055,0.13-0.305,0.886-0.265,1.059
						c0.036,0.17,0.182,0.724,0.298,0.843c0.118,0.116,0.408,0.627,0.379,0.869c-0.024,0.245,0.485,1.061,0.476,1.2
						c-0.007,0.134,0.133,0.549,0.089,0.594c-0.045,0.046-0.086,0.263-0.201,0.378c-0.112,0.112-0.264,0.484-0.071,0.56
						c0.199,0.077,0.716,0.812,0.702,1.044c-0.013,0.23-0.314,1.01-0.124,1.258c0.191,0.242-0.059,0.996,0.277,1.213
						c0.337,0.217,0.792,0.876,0.93,0.862c0.135-0.014,0.591,0.454,0.655,0.581c0.066,0.13-0.034,0.601,0.01,0.789
						c0.042,0.191,0.607,0.681,0.729,0.639c0.124-0.039,0.6,0.313,0.755,0.325c0.156,0.015,0.455,0.028,0.337,0.218
						c-0.125,0.198-0.565,0.709-0.697,0.723c-0.132,0.015-0.474,0.16-0.474,0.16c-0.119,0.018-0.827-0.45-0.947-0.508
						c-0.254-0.129-1.126-0.389-1.38-0.597c-0.254-0.212-1.295-1.032-1.456-1.155c-0.16-0.119-0.435-0.548-0.528-0.492
						c-0.088,0.05-0.297-0.454-0.224-0.636c0.069-0.178-0.41-0.605-0.443-0.487c-0.031,0.12-0.796-0.276-1.259-0.716
						c-0.456-0.438-0.988-1.713-1.341-1.942c-0.342-0.231-0.91-1.103-1.01-1.171c-0.098-0.074-0.398-0.179-0.47-0.289
						c-0.074-0.114-0.426-0.554-0.735-0.723c-0.307-0.177-1.368-0.579-1.68-0.575c-0.309,0.004-1.16-0.045-1.193-0.142
						c-0.036-0.096-0.586-0.298-0.92-0.212c-0.338,0.084-1.228-0.722-1.153-0.822c0.075-0.107-0.065-0.344-0.231-0.281
						c-0.167,0.061-0.793-0.041-1.011-0.176c-0.22-0.134-0.912-1.216-0.937-1.436c-0.032-0.219-0.558-0.908-0.568-1.003
						c-0.023-0.287-1.248-0.892-1.216-0.742c0.025,0.11-0.152,0.374-0.448,0.351c-0.302-0.029-1.088,0.299-1.138,0.252
						c-0.182-0.182-1.179-0.2-1.285-0.163c-0.129,0.047-0.615,0.41-0.783,0.36c-0.173-0.05-0.965-0.036-1.355,0.209
						c-0.395,0.246-1.797,0.82-2.1,0.724c-0.301-0.1-1.344-0.923-1.596-0.959c-0.253-0.038-0.979-0.108-1.061-0.202
						c-0.086-0.09-0.141,0.113,0.023,0.184c0.161,0.072,0.593,0.547,0.486,0.566c-0.11,0.023-0.592,0.224-0.869,0.072
						c-0.273-0.152-1.027-0.147-1.101-0.216c-0.077-0.07-0.327-0.383-0.648-0.571c-0.325-0.185-1.225-0.475-1.295-0.475
						C97.385,114.828,93.348,107.572,92.678,104.54z"/>
				</g>
				<g id="XMLID_2461_">
					<path id="XMLID_2462_" fill="#54C0EB" d="M91.664,93.041c-0.125,0.074-0.082-0.944,0.1-2.269
						c0.179-1.321,1.104-4.781,1.176-4.836c0.071-0.056,0.198,0.248,0.107,0.495c-0.086,0.244-0.239,0.981-0.148,1.016
						c0.092,0.036,0.22,0.528,0.137,0.691c-0.08,0.163-0.066,0.818-0.117,1.063c-0.051,0.24-0.457,1.062-0.421,1.312
						c0.036,0.255,0.473,1.034,0.371,1.134c-0.099,0.1-0.291,0.269-0.209,0.147c0.082-0.121,0.382,0.179,0.438,0.291
						c0.05,0.111-0.312,0.641-0.532,0.958c-0.222,0.32-0.946,1.24-1.005,1.212c-0.056-0.033-0.197-0.106-0.189-0.208
						c0.007-0.099,0.166-0.438,0.337-0.519C91.882,93.446,91.79,92.96,91.664,93.041z"/>
				</g>
				<g id="XMLID_2459_">
					<path id="XMLID_2460_" fill="#54C0EB" d="M131.055,63.452c1.866,0.426,3.382,0.883,3.383,1.019
						c-0.001,0.136,0.277,0.465,0.431,0.409c0.152-0.051,0.563-0.334,0.785-0.252c0.223,0.077,1.056,0.483,1.358,0.714
						c0.302,0.226,1.056,1.267,1.141,1.601c0.092,0.334,0.346,1.362,0.278,1.543c-0.076,0.18,0.311,1.001,0.843,1.404
						c0.54,0.409,0.743,1.663,0.543,1.725c-0.195,0.058-0.93-0.451-1.131-0.444c-0.205,0.012-0.631-0.101-0.496-0.002
						c0.134,0.1,0.169,0.594,0.206,0.673c0.039,0.081-0.092,0.35-0.058,0.444c0.04,0.098,0.433,0.4,0.576,0.445
						c0.144,0.044,0.635,0.153,0.784,0.263s0.7,0.348,0.921,0.625c0.222,0.281,0.649,1.063,0.649,1.127
						c0.005,0.062-0.037,0.523,0.092,0.907c0.133,0.384,0.244,1.562,0.016,1.776c-0.231,0.216-0.017,0.792,0.05,0.733
						c0.075-0.061,0.366,0.022,0.48,0.19c0.108,0.16,0.435,1.015,0.935,1.563c0.494,0.551,0.187,1.82,0.103,1.745
						c-0.245-0.211-1.527-0.112-1.362,0.157c0.658,1.036,1.203,0.633,2.203,0.884c0.302,0.073,0.799,0.775,0.376,0.803
						c-0.419,0.022-1.654-0.04-1.818-0.126c-0.391-0.219-0.995-1.069-1.218-1.167c-0.173-0.073-0.707-0.1-0.811-0.19
						c-0.106-0.093-0.436-0.304-0.618-0.107c-0.188,0.199-0.758,0.071-0.789-0.024c-0.031-0.096-0.508-0.424-0.743-0.501
						c-0.243-0.078-0.939-0.055-1.026,0.139c-0.087,0.193-0.203,0.88-0.233,1.081c-0.024,0.196,0.444,0.854,0.502,0.966
						c0.061,0.118-0.262,0.425-0.193,0.496c0.067,0.063,0.2,0.29,0.145,0.347c-0.274,0.265,1.21,2.273,1.006,2.511
						c-0.117,0.132-0.517,0.132-0.615,0.033c-0.105-0.1-0.523-0.421-0.72-0.484c-0.191-0.064-0.936-0.277-1.248-0.46
						c-0.309-0.179-1.202-0.451-1.333-0.517c-0.124-0.062-0.595-0.377-0.726-0.3c-0.134,0.081-0.546-0.002-0.6-0.068
						c-0.05-0.066-0.393-0.255-0.959-0.304c0,0,0,0-0.452,0.643c-0.124,0.188-0.124,0.188-0.124,0.188
						c-0.165-0.073-0.315,0.033-0.336,0.228c-0.025,0.202-0.558,0.664-0.671,0.621c-0.111-0.042-0.76-0.279-1.179-0.337
						c-0.424-0.059-1.54,0.096-1.555,0.187c-0.017,0.088,0.021,0.383,0.168,0.454c0.144,0.069,0.675-0.081,0.902,0.009
						c0.224,0.086,0.842,0.318,0.868,0.164c0.028-0.151,0.601-0.471,0.857-0.404c0.253,0.064,0.939,0.46,0.953,0.629
						c0.004,0.174,0.461,0.847,0.445,1.081c-0.013,0.23-0.238,0.901-0.166,1.001c0.072,0.098-0.036,0.691-0.17,1.115
						c-0.136,0.426-0.874,1.413-1.223,1.267c-0.966-0.409-3.743-1.165-3.743-1.165c-0.215-0.147-0.623-0.152-0.474-0.048
						c0.145,0.107,0.62,0.545,0.804,0.55c0.19,0,0.902,0.119,1.167,0.175c0.27,0.063,1.302,0.756,1.64,0.731
						c0.341-0.032,1.392,0.425,1.518,0.298c0.131-0.131,0.46-0.611,0.453-0.776c-0.01-0.176,0.545-0.473,0.768-0.332
						c0.222,0.147,0.817,1.123,0.974,1.675c0.154,0.557,0.535,2.168,0.521,2.352c-0.019,0.182,0.07,0.911,0.24,1.201
						c0.169,0.293,0.923,1.445,1.46,1.908c0.535,0.475,1.628,2.166,1.659,2.711c0.028,0.544,1.059,2.153,0.995,2.273
						c-0.061,0.12-0.096,0.573,0.004,0.735c0.096,0.162,0.572,0.877,0.576,1.204c0.011,0.325,0.303,1.599,0.202,2.07
						c-0.104,0.473-1.269,1.457-1.74,1.181c-0.473-0.277-1.807-0.753-1.956-0.905c-0.15-0.154-0.882-0.719-1.285-0.916
						c-0.404-0.196-1.672-0.68-1.951-1.027c-0.281-0.347-0.983-1.438-1.279-1.678c-0.523-0.42-2.895-1.362-3.348-2.122
						c-0.193-0.326-1.193-1.122-1.257-1.002c-0.062,0.12-0.318,0.483-0.501,0.524c-0.182,0.048-0.803,0.36-1.001,0.177l-0.51,0.41
						c0.183,0.357,0.164,0.825-0.05,1.043c-0.217,0.218-0.897,0.857-1.23,0.925c-0.335,0.067-1.506,0.11-1.86-0.046
						c-0.357-0.16-1.633-0.733-2.07-1.172c-0.438-0.436-1.653-1.825-1.728-2.106c-0.076-0.292-0.615-1.554-0.56-2.151
						c0,0,0,0-0.125-0.363c-0.2-0.56-0.2-0.56-0.2-0.56c-0.477-0.621-0.805-1.286-0.737-1.484c0.065-0.197-0.022-0.808,0.111-0.897
						c0.132-0.087,0.6-0.32,0.724-0.666c0.12-0.348,0.997-1.454,1.11-1.72c0.115-0.266,0.792-0.908,0.915-0.841
						c0.124,0.064,0.171,0.33,0.294,0.335c0.12,0,0.826,0.256,1.249,0.097c0.422-0.158,1.488-0.352,1.401-0.53
						c-0.084-0.179,0.359-0.925,0.797-1.294c0.438-0.372,1.498-1.184,1.363-1.414c-0.14-0.225-0.266-0.889-0.367-0.99
						c-0.1-0.098-0.265-0.232-0.143-0.065c0.13,0.164-0.215,0.464-0.285,0.352c-0.069-0.11-0.714,0.334-0.99,0.866
						c0,0,0,0-0.52,0.05c-0.235,0.022-0.235,0.022-0.235,0.022c-0.202-0.085-0.455-0.236-0.558-0.335
						c-0.106-0.098-0.506-0.59-0.546-0.551c-0.039,0.043,0.034,0.325,0.262,0.526c0.237,0.201,0.71,0.713,0.843,0.601
						c0.129-0.119,0.422,0.277,0.291,0.396c-0.124,0.117-0.493-0.039-0.473-0.068c0.022-0.029-0.149-0.011-0.261,0.12
						c-0.113,0.135-0.517,0.135-0.617,0.037c-0.104-0.104-0.524-0.438-0.713-0.527c0,0,0,0-0.178-0.054
						c-0.125-0.032-0.405-0.18-0.527-0.204c-0.654-0.135-0.654-0.135-0.654-0.135c-0.713,0.036-0.949,0.082-0.532,0.098
						c0.424,0.016,1.341,0.304,1.192,0.293c-0.141-0.012-0.058,0.382,0.019,0.346c0.074-0.033,0.249,0.333,0.193,0.514
						c-0.056,0.183,0.231,0.761,0.081,0.834c-0.146,0.071-0.493-0.279-0.385-0.383c0.108-0.097-0.182-0.44-0.416-0.503
						c-0.242-0.055-0.92,0.207-1.038,0.133c-0.11-0.075-0.119,0.157,0.218,0.352c0.336,0.189-0.12,0.714-0.461,0.494
						c-0.337-0.221-0.78-0.799-0.817-0.587c-0.036,0.215-0.569,0.706-0.498,0.977c0.074,0.267,0.056,1.201,0.246,1.509
						c0.192,0.311,0.428,1.152,0.291,1.193c-0.14,0.046-0.513,0.566-0.682,0.585c-0.17,0.021-0.729,0.388-0.907,0.265
						c-0.184-0.127-0.796-0.623-0.971-0.838c-0.174-0.214-0.408-1.006-0.246-1.288c0.164-0.28,0.865-0.757,0.843-0.863
						c-0.024-0.113-0.241-0.395-0.427-0.384c-0.181,0.005-0.804-0.325-0.919-0.195c-0.112,0.133-0.457,0.097-0.489-0.048
						c-0.027-0.138,0.051-0.649,0.017-0.839c-0.036-0.19,0.328-0.691,0.333-0.738c0.003-0.046-0.302,0.024-0.533,0.268
						c-0.23,0.25-0.728,0.8-0.709,0.681c0.016-0.122-0.06-0.494-0.24-0.55c-0.177-0.054-0.573-0.67-0.467-0.797
						c0.105-0.135-0.225-0.495-0.3-0.449c-0.066,0.037-0.566-0.052-0.719-0.283c-0.154-0.231-0.809-0.983-0.773-1.133
						c0.033-0.154,0.417-0.445,0.46-0.331c0.045,0.11,0.14,0.393,0.247,0.386c0.106-0.006,0.591,0.023,0.838,0.086
						c0.242,0.061,0.978,0.745,1.093,0.739c0.105-0.008,0.448,0.148,0.524,0.361c0.076,0.209,0.352,0.687,0.213,0.489
						c-0.142-0.195,0.274-0.758,0.191-0.89c-0.083-0.128-0.182-0.604-0.11-0.771c0.068-0.165,0.325-0.663,0.238-0.755
						c-0.083-0.092-0.326-0.069-0.389-0.211c-0.06-0.141-0.347-0.579-0.505-0.436c-0.157,0.143-0.792-0.088-1.01-0.308
						c-0.219-0.219-0.942-0.72-1.156-1.048c-0.211-0.324,0.026-1.179-0.04-1.242c-0.066-0.067-0.198-0.3-0.138-0.363
						c0.056-0.063,0.174-0.245,0.119-0.513c-0.059-0.267-0.415-1.268-0.389-1.61c0.021-0.339-0.009-1.319,0.011-1.409
						c0.017-0.094,0.206-0.242,0.221-0.459c0.008-0.217,0.165-0.894,0.292-1.023c0.129-0.129,0.611-0.459,0.784-0.445
						c0.17,0.012,0.776,0.053,0.955-0.049c0.181-0.098,1.009-0.26,1.415-0.485c0.41-0.22,1.135,0.185,1.157-0.065
						c0.025-0.245-0.406-0.977-0.301-1.024c0.104-0.046,0.455-0.211,0.554-0.11c0.103,0.1,0.395,0.128,0.423-0.166
						c0.033-0.288,0.415-1.263,0.623-1.518c0.209-0.259,0.678-0.635,0.534-0.541c-0.151,0.093-0.436-0.47-0.232-0.547
						c0.205-0.078,0.821-0.963,0.807-1.288c-0.017-0.328-0.074-1.237,0.081-1.276c0.152-0.04,0.52-0.146,0.467-0.289
						c-0.053-0.145,0.385-0.385,0.506-0.257c0.117,0.129,0.377,0.141,0.336,0.01c-0.039-0.13-0.143-0.528,0.068-0.589
						c0.212-0.063,0.627-0.262,0.464-0.213c-0.161,0.049-0.598-0.346-0.551-0.467c0.256-0.622-0.085-0.952,0.061-1.373
						c0.04-0.11,0.773-1.793,0.886-1.77c0.109,0.023,0.327-0.212,0.255-0.373c-0.073-0.159,0.293-0.665,0.159-0.834
						c-0.135-0.168-0.036-0.574,0.119-0.567c0.157,0.004,0.724-0.262,0.925-0.445c0.205-0.188,0.648-0.698,0.849-0.694
						c0.201,0.003,0.769,0.281,0.803,0.421c0.028,0.138,0.594,0.332,0.993,0.083c0,0,0,0,0.232-0.147
						c0.123-0.084,0.19-0.254,0.315-0.314c0.249-0.121,0.249-0.121,0.249-0.121C123.985,62.833,129.195,63.032,131.055,63.452z"/>
				</g>
				<g id="XMLID_2457_">
					<path id="XMLID_2458_" fill="#54C0EB" d="M140.379,66.762c0.007,0.031-0.052,0.068-0.15,0.016
						c-0.097-0.047-0.297,0.202-0.245,0.396c0.05,0.188-0.48,0.148-0.599-0.047c-0.12-0.196-0.629-0.784-0.538-0.842
						C138.987,66.194,140.254,66.511,140.379,66.762z"/>
				</g>
				<g id="XMLID_2455_">
					<path id="XMLID_2456_" fill="#54C0EB" d="M145.916,77.648c-0.048,0.073-0.141-0.015-0.201-0.191
						c-0.062-0.176,0.18-0.532,0.026-0.671c-0.148-0.136-0.172-0.514-0.036-0.561c0.133-0.05,0.659,0.156,0.825,0.063
						c0.158-0.092,0.529,0.481,0.395,0.673c-0.136,0.188-0.171,0.691-0.266,0.652C146.566,77.576,145.963,77.571,145.916,77.648z"/>
				</g>
				<g id="XMLID_2453_">
					<path id="XMLID_2454_" fill="#54C0EB" d="M149.425,81.203c0.222,0.056,0.309,0.145,0.195,0.201
						c-0.109,0.05-0.515,0.199-0.485,0.328c0.032,0.124-0.044,0.243-0.506-0.043c-0.465-0.286-0.652-1.404-0.448-1.539
						c0.206-0.125,0.766,0.249,0.718,0.362C148.849,80.627,149.201,81.146,149.425,81.203z"/>
				</g>
				<g id="XMLID_2451_">
					<path id="XMLID_2452_" fill="#54C0EB" d="M148.072,81.734c0.155,0.228,0.194,0.795,0.239,0.79
						c0.047-0.01,0.12,0.021,0.066,0.11c-0.056,0.089-0.055,0.353-0.287,0.356c-0.229,0.008-0.989,0.603-1.225,0.54
						c-0.237-0.062-0.768-0.832-0.633-1.35c0.134-0.516-0.484-2.037-0.289-2.122c0.197-0.088,0.783-0.073,0.858,0.054
						C146.803,80.111,147.627,81.074,148.072,81.734z"/>
				</g>
				<g id="XMLID_2449_">
					<path id="XMLID_2450_" fill="#54C0EB" d="M149.274,84.016c0.17-0.019-2.149,1.456-2.228,1.332
						c-0.081-0.13,0.056-0.595,0.41-0.743C147.817,84.455,149.135,84.033,149.274,84.016z"/>
				</g>
				<g id="XMLID_2447_">
					<path id="XMLID_2448_" fill="#54C0EB" d="M142.385,75.451c0.04,0.207-0.046,0.305-0.194,0.222
						c-0.147-0.088-0.551-0.355-0.579-0.578C141.577,74.87,142.344,75.247,142.385,75.451z"/>
				</g>
				<g id="XMLID_2445_">
					<path id="XMLID_2446_" fill="#54C0EB" d="M143.57,76.004c0.266-0.171,0.558-0.136,0.648,0.07
						c0.087,0.209,0.199,0.767,0.014,0.771C144.047,76.852,143.302,76.169,143.57,76.004z"/>
				</g>
				<g id="XMLID_2443_">
					<path id="XMLID_2444_" fill="#54C0EB" d="M150.342,78.22c0.361,0.396-0.123,1.066-0.589,1.133
						C149.306,78.946,149.9,78.291,150.342,78.22z"/>
				</g>
				<g id="XMLID_2441_">
					<path id="XMLID_2442_" fill="#54C0EB" d="M142.144,69.88c-0.107,0.316-0.238,0.583-0.302,0.591
						c-0.062,0.007-0.242,0.292-0.271,0.491c-0.029,0.195,0.106,0.771-0.048,0.799c-0.157,0.023-0.519-0.359-0.432-0.443
						c0.086-0.086,0.237-0.202,0.135-0.061c-0.097,0.141-0.369-0.245-0.336-0.49c0.014-0.094,0.318-2.16,0.254-2.237
						c-0.04-0.052-0.18-0.324-0.361-0.516c-0.177-0.189-0.8-0.726-0.745-0.784c0.059-0.057,0.507,0.028,0.868,0.315
						C141.273,67.831,142.249,69.557,142.144,69.88z"/>
				</g>
				<g id="XMLID_2439_">
					<path id="XMLID_2440_" fill="#54C0EB" d="M137.482,65.336c0.428,0.178,0.85,0.364,1.271,0.563
						C138.353,65.999,137.927,65.727,137.482,65.336z"/>
				</g>
				<g id="XMLID_2437_">
					<path id="XMLID_2438_" fill="#54C0EB" d="M143.078,84.127c-0.538,0.071-0.816,0.107-0.617,0.084
						c0.194-0.025,0.023-0.408,0.119-0.366c0.096,0.045,0.601-0.1,0.943,0.026c0,0,0,0,0.329,0.098
						c0.608,0.164,1.22-0.011,1.865,0.265c0.327,0.136,0.559,0.795,0.318,0.819C145.792,85.073,143.614,84.063,143.078,84.127z"/>
				</g>
				<g id="XMLID_2435_">
					<path id="XMLID_2436_" fill="#54C0EB" d="M138.51,86.299c-0.098-0.265-0.026-0.471,0.16-0.467
						c0.19,0.008,0.737,0.342,0.782,0.471C139.5,86.432,138.607,86.56,138.51,86.299z"/>
				</g>
				<g id="XMLID_2433_">
					<path id="XMLID_2434_" fill="#54C0EB" d="M139.641,98.591c0.179,0.255,0.304,0.515,0.29,0.578
						c-0.031,0.129,0.649,0.906,0.743,1.059c0.124,0.205,0.412,1.061,0.338,1.197c-0.069,0.134-0.574,0.336-0.78,0.167
						c-0.211-0.172-1.008-0.676-1.058-0.817c-0.056-0.144-0.326-0.573-0.454-0.624c-0.126-0.049-0.526-0.674-0.578-0.928
						c-0.052-0.252,0.048-1.072-0.083-1.3c-0.132-0.227-0.218-0.678-0.034-0.508C138.207,97.585,139.466,98.334,139.641,98.591z"/>
				</g>
				<g id="XMLID_2428_">
					<path id="XMLID_2429_" fill="#54C0EB" d="M103.704,92.465c0.065,0.709-0.278,0.196-0.818,0.725
						c-0.101,0.099-0.74-0.011-1.19-0.472c-0.462-0.462-1.822-0.881-1.815-1.076c0.01-0.201-0.306-0.409-0.289-0.592
						c0.016-0.185-0.137-0.581-0.375-0.473c-0.244,0.115-0.784-0.243-0.629-0.37c0.161-0.13-0.083-0.407-0.073-0.266
						c0.011,0.141-0.557,0.278-0.663,0.151c-0.103-0.132-0.515-0.521-0.691-0.578c-0.171-0.056-0.852-0.435-1.067-0.265
						c-0.22,0.168-0.801,0.452-0.768,0.566c0.026,0.108-0.427,0.449-0.639,0.545c-0.209,0.097-0.656-0.266-0.482-0.468
						c0.174-0.204,0.495-0.689,0.354-0.635c-0.136,0.056-0.529,0.384-0.7,0.426c-0.178,0.04-0.163,0.29-0.273,0.256
						c-0.114-0.033-0.387,0.097-0.393-0.105c-0.011-0.204,0.377-0.651,0.489-0.888c0.106-0.239,0.111-0.806-0.003-0.708
						c-0.117,0.096-0.359-0.648-0.231-1.169c0.131-0.515,1.082-2.043,1.309-2.279c0.23-0.233,0.971-0.972,0.828-1.067
						c-0.146-0.099-0.372-0.558-0.256-0.765c0.113-0.208,0.816-0.98,1.134-1.265c0.316-0.286,0.731-1.144,0.835-1.218
						c0.1-0.075,0.469-0.194,0.565-0.349c0.098-0.157,0.711-0.598,0.925-0.81c0.216-0.214,0.695-0.077,0.544,0.177
						c-0.153,0.249,0.201,0.799,0.277,0.591c0.082-0.215,0.639-0.659,0.763-0.651c0.125,0.012,0.534-0.25,0.647-0.396
						c0.109-0.145,0.388,0.265,0.3,0.41c-0.087,0.149-0.25,0.661-0.214,0.801c0.039,0.143-0.17,0.517-0.059,0.555
						c0.114,0.037,0.421,0.513,0.425,0.639c-0.003,0.12-0.118,0.316,0.087,0.194c0.209-0.13,0.689,0.272,0.555,0.412
						c-0.138,0.144,0.029,0.781,0.515,1.083c0.482,0.301,0.376,1.237,0.499,1.239c0.129,0.007,0.406,0.402,0.314,0.419
						c-0.096,0.016-0.157,0.076,0.051,0.052c0.206-0.023,0.144,0.515-0.083,0.602c-0.227,0.091-0.817,0.416-0.809,0.508
						c0.012,0.095,0.075,0.292,0.33,0.251c0.257-0.045,0.409-0.261,0.402-0.028c-0.012,0.232,0.252,1.011,0.22,1.287
						c-0.035,0.277-0.341,1.104-0.35,1.243c-0.003,0.143-0.039,0.621-0.081,0.76c-0.037,0.142-0.502,0.479-0.431,0.607
						C103.116,90.915,103.636,91.513,103.704,92.465z"/>
				</g>
				<g id="XMLID_2426_">
					<path id="XMLID_2427_" fill="#54C0EB" d="M105.106,76.609c0.104-0.076,0.324-0.137,0.489-0.132
						c0.166,0.004,0.356-0.292,0.658-0.377c0.305-0.084,0.978,0.72,0.743,0.843c-0.238,0.119-0.779,0.368-0.642,0.6
						c0.139,0.232,0.435,0.924,0.317,1.045c-0.112,0.124-0.564-0.016-0.695,0.081c-0.134,0.095-0.504,0.007-0.517-0.209
						c-0.012-0.219-0.419-0.659-0.43-0.454c-0.013,0.196-0.377,0.655-0.444,0.597c-0.069-0.061-0.462-0.313-0.61-0.272
						c-0.158,0.045-0.499-0.421-0.411-0.754c0.092-0.336,0.65-0.392,0.497-0.462c-0.149-0.063-0.016-0.581,0.202-0.682
						C104.48,76.331,104.999,76.681,105.106,76.609z"/>
				</g>
				<g id="XMLID_2424_">
					<path id="XMLID_2425_" fill="#54C0EB" d="M104.541,75.86c-0.081-0.075,0.156-0.421,0.533-0.774
						c0.373-0.349,1.543-1.094,1.543-0.935c0.008,0.155-0.064,0.796-0.435,1.064C105.815,75.484,104.623,75.931,104.541,75.86z"/>
				</g>
				<g id="XMLID_2422_">
					<path id="XMLID_2423_" fill="#54C0EB" d="M110.56,90.074c0.121,0.104,0.129,0.312,0.027,0.46
						c-0.103,0.145-0.383,0.447-0.529,0.339c-0.152-0.114-0.447-0.496-0.325-0.545c0.123-0.048-0.117-0.553-0.046-0.622
						C109.758,89.635,110.442,89.965,110.56,90.074z"/>
				</g>
				<g id="XMLID_2420_">
					<path id="XMLID_2421_" fill="#54C0EB" d="M106.912,87.051c-0.124,0.178-0.368,0.248-0.55,0.155
						c-0.178-0.089-0.622,0.227-0.659,0.087c-0.037-0.137-0.248-0.449-0.251-0.359c0.002,0.09-0.251,0.181-0.192,0.015
						c0.059-0.168-0.306-0.646-0.149-0.626c0.158,0.012,0.663-0.225,0.792-0.335c0.131-0.115,0.615-0.627,0.8-0.565
						c0.194,0.057,0.651,0.747,0.56,0.867C107.17,86.406,107.034,86.873,106.912,87.051z"/>
				</g>
				<g id="XMLID_2418_">
					<path id="XMLID_2419_" fill="#54C0EB" d="M112.952,72.895c-0.011-0.219,0.079-0.707,0.196-1.086
						c0.113-0.375,0.714-1.39,0.701-1.436c-0.014-0.047-0.022-0.234,0.05-0.302c0.07-0.073,0.354-0.044,0.468,0.227
						c0.115,0.27-0.338,1.232-0.321,1.585c0.019,0.36-0.233,1.374,0.057,1.505c0.291,0.137,1.023,0.614,0.989,0.689
						c-0.039,0.075-0.184,0.326-0.427,0.369c-0.248,0.051-0.927,0.025-0.963-0.13C113.661,74.151,112.963,73.113,112.952,72.895z"/>
				</g>
				<g id="XMLID_2416_">
					<path id="XMLID_2417_" fill="#54C0EB" d="M110.919,70.478c-0.498-0.443,0.024-1.367,0.613-0.793
						C111.198,69.941,111.465,70.5,110.919,70.478z"/>
				</g>
				<g id="XMLID_2414_">
					<path id="XMLID_2415_" fill="#54C0EB" d="M116.18,65.426c-0.097-0.112,0.061-0.486,0.356-0.823
						c0.296-0.339,0.926-0.234,0.752,0.027C117.111,64.89,116.283,65.542,116.18,65.426z"/>
				</g>
				<g id="XMLID_2411_">
					<path id="XMLID_2413_" fill="#54C0EB" d="M96.398,97.43c0.095,0.033-0.076,0.11-0.382,0.169
						c-0.302,0.057,0.068,0.908-0.093,1.044c-0.161,0.135-0.623-0.193-0.621-0.349c-0.001-0.158,0.02-0.587,0.128-0.61
						C95.541,97.668,96.303,97.395,96.398,97.43z"/>
				</g>
				<g id="XMLID_2401_">
					<path id="XMLID_2402_" fill="#54C0EB" d="M110.682,109.249c0.086-0.088,0.201-0.025,0.258,0.133
						c0.057,0.16-0.258,0.493-0.328,0.429C110.544,109.742,110.594,109.334,110.682,109.249z"/>
				</g>
				<g id="XMLID_2399_">
					<path id="XMLID_2400_" fill="#54C0EB" d="M108.596,110.672c-0.124,0.19-0.419,0.319-0.654,0.291
						c-0.233-0.024-0.868,0.343-0.912,0.515c-0.047,0.169-0.477,0.487-0.519,0.38c-0.046-0.115-0.047-0.59,0.169-0.804
						c1.044-1.06,0.986-0.682,1.788-0.937c0.09-0.027,0.549,0.036,0.78-0.23c0.234-0.264,1.01,0.119,0.839,0.246
						c-0.166,0.126-0.168,0.508-0.308,0.52c-0.142,0.007-0.592,0.3-0.722,0.24C108.917,110.832,108.717,110.485,108.596,110.672z"/>
				</g>
				<g id="XMLID_2396_">
					<path id="XMLID_2397_" fill="#54C0EB" d="M108.796,111.424c0.154-0.006,0.216,0.049,0.13,0.128
						c-0.077,0.073-0.364,0.439-0.428,0.374C108.431,111.861,108.64,111.438,108.796,111.424z"/>
				</g>
				<g id="XMLID_2394_">
					<path id="XMLID_2395_" fill="#54C0EB" d="M107.147,110.219c-0.188,0.192-0.439-0.275-0.249-0.351
						C107.021,109.821,107.206,110.161,107.147,110.219z"/>
				</g>
				<g id="XMLID_2392_">
					<path id="XMLID_2393_" fill="#54C0EB" d="M107.5,109.648c-0.149-0.134-0.237-0.279-0.195-0.322
						c0.041-0.041,0.238-0.125,0.334-0.086C107.735,109.28,107.649,109.788,107.5,109.648z"/>
				</g>
				<g id="XMLID_2390_">
					<path id="XMLID_2391_" fill="#54C0EB" d="M108.513,109.704c-0.116,0.256-0.508-0.329-0.31-0.408
						c0.12-0.05,0.523,0.065,0.592-0.024c0.069-0.088,0.225,0.096,0.163,0.301C108.894,109.772,108.559,109.632,108.513,109.704z"/>
				</g>
				<g id="XMLID_2388_">
					<path id="XMLID_2389_" fill="#54C0EB" d="M153.078,78.932c0.221,0.384,0.321,0.616,0.227,0.52
						c-0.1-0.099-0.656-0.321-1.025-0.278c-0.367,0.046-1.387,0.236-1.434,0.396c-0.049,0.161-0.273,0.013-0.239-0.094
						c0.035-0.103-0.111-0.387,0-0.361c0.116,0.031,0.401-0.341,0.429-0.45c0.032-0.106,0.071-0.478,0.172-0.576
						c0.1-0.104,0.463-0.4,0.583-0.434C151.911,77.62,152.859,78.555,153.078,78.932z"/>
				</g>
			</g>
			<path id="XMLID_2385_" fill="#ADB3BA" d="M92.537,92.588c-0.046,0-0.069,0.167,0.014,0.167
				C92.599,92.769,92.623,92.6,92.537,92.588z"/>
			<path id="XMLID_2382_" fill="#ADB3BA" d="M102.908,97.749c-0.049-0.013-0.073,0.162,0.01,0.173
				C102.97,97.922,102.994,97.749,102.908,97.749z"/>
		</g>
		<g id="XMLID_2586_">
			<path id="XMLID_2329_" fill="#E7EAEF" d="M130.17,146.43v26.718c0,0.559-0.439,0.997-0.997,0.997h-73.61
				c-0.558,0-0.997-0.439-0.997-0.997V146.43c0-0.558,0.439-0.997,0.997-0.997h73.61C129.731,145.433,130.17,145.872,130.17,146.43z
				"/>
			<g id="XMLID_2322_">
				<g id="XMLID_2189_">
					<rect id="XMLID_2299_" x="57.799" y="148.397" fill="#ADB3BA" width="5.33" height="1.893"/>
					<rect id="XMLID_2178_" x="57.799" y="148.192" fill="#FFFFFF" width="5.33" height="1.893"/>
				</g>
				<g id="XMLID_2323_">
					<rect id="XMLID_2326_" x="64.18" y="148.397" fill="#ADB3BA" width="5.33" height="1.893"/>
					<rect id="XMLID_2324_" x="64.18" y="148.192" fill="#FFFFFF" width="5.33" height="1.893"/>
				</g>
				<g id="XMLID_2330_">
					<rect id="XMLID_2332_" x="70.56" y="148.397" fill="#ADB3BA" width="5.33" height="1.893"/>
					<rect id="XMLID_2331_" x="70.56" y="148.192" fill="#FFFFFF" width="5.33" height="1.893"/>
				</g>
				<g id="XMLID_2333_">
					<rect id="XMLID_2343_" x="76.941" y="148.397" fill="#ADB3BA" width="5.33" height="1.893"/>
					<rect id="XMLID_2334_" x="76.941" y="148.192" fill="#FFFFFF" width="5.33" height="1.893"/>
				</g>
				<g id="XMLID_2358_">
					<rect id="XMLID_2360_" x="83.322" y="148.397" fill="#ADB3BA" width="5.33" height="1.893"/>
					<rect id="XMLID_2359_" x="83.322" y="148.192" fill="#FFFFFF" width="5.33" height="1.893"/>
				</g>
				<g id="XMLID_2361_">
					<rect id="XMLID_2377_" x="89.703" y="148.397" fill="#ADB3BA" width="5.33" height="1.893"/>
					<rect id="XMLID_2376_" x="89.703" y="148.192" fill="#FFFFFF" width="5.33" height="1.893"/>
				</g>
				<g id="XMLID_2378_">
					<rect id="XMLID_2431_" x="96.083" y="148.397" fill="#ADB3BA" width="5.33" height="1.893"/>
					<rect id="XMLID_2430_" x="96.083" y="148.192" fill="#FFFFFF" width="5.33" height="1.893"/>
				</g>
				<g id="XMLID_2469_">
					<rect id="XMLID_2471_" x="102.464" y="148.397" fill="#ADB3BA" width="5.33" height="1.893"/>
					<rect id="XMLID_2470_" x="102.464" y="148.192" fill="#FFFFFF" width="5.33" height="1.893"/>
				</g>
				<g id="XMLID_2472_">
					<rect id="XMLID_2474_" x="108.845" y="148.397" fill="#ADB3BA" width="5.33" height="1.893"/>
					<rect id="XMLID_2473_" x="108.845" y="148.192" fill="#FFFFFF" width="5.33" height="1.893"/>
				</g>
				<g id="XMLID_2475_">
					<rect id="XMLID_2477_" x="115.225" y="148.397" fill="#ADB3BA" width="5.33" height="1.893"/>
					<rect id="XMLID_2476_" x="115.225" y="148.192" fill="#FFFFFF" width="5.33" height="1.893"/>
				</g>
				<g id="XMLID_2478_">
					<rect id="XMLID_2480_" x="121.606" y="148.397" fill="#ADB3BA" width="5.33" height="1.893"/>
					<rect id="XMLID_2479_" x="121.606" y="148.192" fill="#FFFFFF" width="5.33" height="1.893"/>
				</g>
			</g>
			<g id="XMLID_2484_">
				<g id="XMLID_2483_">
					<rect id="XMLID_2482_" x="57.799" y="152.097" fill="#ADB3BA" width="5.33" height="5.33"/>
					<rect id="XMLID_2481_" x="57.799" y="152.097" fill="#FFFFFF" width="5.33" height="4.807"/>
				</g>
				<g id="XMLID_2485_">
					<rect id="XMLID_2487_" x="64.18" y="152.097" fill="#ADB3BA" width="5.33" height="5.33"/>
					<rect id="XMLID_2486_" x="64.18" y="152.097" fill="#FFFFFF" width="5.33" height="4.807"/>
				</g>
				<g id="XMLID_2488_">
					<rect id="XMLID_2490_" x="70.56" y="152.097" fill="#ADB3BA" width="5.33" height="5.33"/>
					<rect id="XMLID_2489_" x="70.56" y="152.097" fill="#FFFFFF" width="5.33" height="4.807"/>
				</g>
				<g id="XMLID_2491_">
					<rect id="XMLID_2493_" x="76.941" y="152.097" fill="#ADB3BA" width="5.33" height="5.33"/>
					<rect id="XMLID_2492_" x="76.941" y="152.097" fill="#FFFFFF" width="5.33" height="4.807"/>
				</g>
				<g id="XMLID_2494_">
					<rect id="XMLID_2496_" x="83.322" y="152.097" fill="#ADB3BA" width="5.33" height="5.33"/>
					<rect id="XMLID_2495_" x="83.322" y="152.097" fill="#FFFFFF" width="5.33" height="4.807"/>
				</g>
				<g id="XMLID_2497_">
					<rect id="XMLID_2499_" x="89.703" y="152.097" fill="#ADB3BA" width="5.33" height="5.33"/>
					<rect id="XMLID_2498_" x="89.703" y="152.097" fill="#FFFFFF" width="5.33" height="4.807"/>
				</g>
				<g id="XMLID_2500_">
					<rect id="XMLID_2502_" x="96.083" y="152.097" fill="#ADB3BA" width="5.33" height="5.33"/>
					<rect id="XMLID_2501_" x="96.083" y="152.097" fill="#FFFFFF" width="5.33" height="4.807"/>
				</g>
				<g id="XMLID_2503_">
					<rect id="XMLID_2505_" x="102.464" y="152.097" fill="#ADB3BA" width="5.33" height="5.33"/>
					<rect id="XMLID_2504_" x="102.464" y="152.097" fill="#FFFFFF" width="5.33" height="4.807"/>
				</g>
				<g id="XMLID_2506_">
					<rect id="XMLID_2508_" x="108.845" y="152.097" fill="#ADB3BA" width="5.33" height="5.33"/>
					<rect id="XMLID_2507_" x="108.845" y="152.097" fill="#FFFFFF" width="5.33" height="4.807"/>
				</g>
				<g id="XMLID_2509_">
					<rect id="XMLID_2511_" x="115.225" y="152.097" fill="#ADB3BA" width="5.33" height="5.33"/>
					<rect id="XMLID_2510_" x="115.225" y="152.097" fill="#FFFFFF" width="5.33" height="4.807"/>
				</g>
				<g id="XMLID_2512_">
					<rect id="XMLID_2514_" x="121.606" y="152.097" fill="#ADB3BA" width="5.33" height="5.33"/>
					<rect id="XMLID_2513_" x="121.606" y="152.097" fill="#FFFFFF" width="5.33" height="4.807"/>
				</g>
			</g>
			<g id="XMLID_2516_">
				<g id="XMLID_2549_">
					<rect id="XMLID_2551_" x="57.799" y="159.098" fill="#ADB3BA" width="5.33" height="5.33"/>
					<rect id="XMLID_2550_" x="57.799" y="159.099" fill="#FFFFFF" width="5.33" height="4.807"/>
				</g>
				<g id="XMLID_2546_">
					<rect id="XMLID_2548_" x="64.18" y="159.098" fill="#ADB3BA" width="5.33" height="5.33"/>
					<rect id="XMLID_2547_" x="64.18" y="159.099" fill="#FFFFFF" width="5.33" height="4.807"/>
				</g>
				<g id="XMLID_2543_">
					<rect id="XMLID_2545_" x="70.56" y="159.098" fill="#ADB3BA" width="5.33" height="5.33"/>
					<rect id="XMLID_2544_" x="70.56" y="159.099" fill="#FFFFFF" width="5.33" height="4.807"/>
				</g>
				<g id="XMLID_2540_">
					<rect id="XMLID_2542_" x="76.941" y="159.098" fill="#ADB3BA" width="5.33" height="5.33"/>
					<rect id="XMLID_2541_" x="76.941" y="159.099" fill="#FFFFFF" width="5.33" height="4.807"/>
				</g>
				<g id="XMLID_2536_">
					<rect id="XMLID_2539_" x="83.322" y="159.098" fill="#ADB3BA" width="5.33" height="5.33"/>
					<rect id="XMLID_2537_" x="83.322" y="159.099" fill="#FFFFFF" width="5.33" height="4.807"/>
				</g>
				<g id="XMLID_2533_">
					<rect id="XMLID_2535_" x="89.703" y="159.098" fill="#ADB3BA" width="5.33" height="5.33"/>
					<rect id="XMLID_2534_" x="89.703" y="159.099" fill="#FFFFFF" width="5.33" height="4.807"/>
				</g>
				<g id="XMLID_2530_">
					<rect id="XMLID_2532_" x="96.083" y="159.098" fill="#ADB3BA" width="5.33" height="5.33"/>
					<rect id="XMLID_2531_" x="96.083" y="159.099" fill="#FFFFFF" width="5.33" height="4.807"/>
				</g>
				<g id="XMLID_2527_">
					<rect id="XMLID_2529_" x="102.464" y="159.098" fill="#ADB3BA" width="5.33" height="5.33"/>
					<rect id="XMLID_2528_" x="102.464" y="159.099" fill="#FFFFFF" width="5.33" height="4.807"/>
				</g>
				<g id="XMLID_2524_">
					<rect id="XMLID_2526_" x="108.845" y="159.098" fill="#ADB3BA" width="5.33" height="5.33"/>
					<rect id="XMLID_2525_" x="108.845" y="159.099" fill="#FFFFFF" width="5.33" height="4.807"/>
				</g>
				<g id="XMLID_2521_">
					<rect id="XMLID_2523_" x="115.225" y="159.098" fill="#ADB3BA" width="5.33" height="5.33"/>
					<rect id="XMLID_2522_" x="115.225" y="159.099" fill="#FFFFFF" width="5.33" height="4.807"/>
				</g>
				<g id="XMLID_2517_">
					<rect id="XMLID_2520_" x="121.606" y="159.098" fill="#ADB3BA" width="5.33" height="5.33"/>
					<rect id="XMLID_2519_" x="121.606" y="159.099" fill="#FFFFFF" width="5.33" height="4.807"/>
				</g>
			</g>
			<g id="XMLID_2552_">
				<g id="XMLID_2583_">
					<rect id="XMLID_2585_" x="57.799" y="166.056" fill="#ADB3BA" width="5.33" height="5.33"/>
					<rect id="XMLID_2584_" x="57.799" y="166.056" fill="#FFFFFF" width="5.33" height="4.807"/>
				</g>
				<g id="XMLID_2580_">
					<rect id="XMLID_2582_" x="64.18" y="166.056" fill="#ADB3BA" width="5.33" height="5.33"/>
					<rect id="XMLID_2581_" x="64.18" y="166.056" fill="#FFFFFF" width="5.33" height="4.807"/>
				</g>
				<g id="XMLID_2577_">
					<rect id="XMLID_2579_" x="70.56" y="166.056" fill="#ADB3BA" width="5.33" height="5.33"/>
					<rect id="XMLID_2578_" x="70.56" y="166.056" fill="#FFFFFF" width="5.33" height="4.807"/>
				</g>
				<g id="XMLID_2574_">
					<rect id="XMLID_2576_" x="76.941" y="166.056" fill="#ADB3BA" width="30.853" height="5.33"/>
					<rect id="XMLID_2575_" x="76.941" y="166.056" fill="#FFFFFF" width="5.33" height="4.807"/>
				</g>
				<g id="XMLID_2571_">
					<rect id="XMLID_2573_" x="83.322" y="166.056" fill="#ADB3BA" width="5.33" height="5.33"/>
					<rect id="XMLID_2572_" x="83.322" y="166.056" fill="#FFFFFF" width="5.33" height="4.807"/>
				</g>
				<g id="XMLID_2568_">
					<rect id="XMLID_2570_" x="89.703" y="166.056" fill="#ADB3BA" width="5.33" height="5.33"/>
					<rect id="XMLID_2569_" x="89.703" y="166.056" fill="#FFFFFF" width="5.33" height="4.807"/>
				</g>
				<g id="XMLID_2565_">
					<rect id="XMLID_2567_" x="96.083" y="166.056" fill="#ADB3BA" width="5.33" height="5.33"/>
					<rect id="XMLID_2566_" x="96.083" y="166.056" fill="#FFFFFF" width="5.33" height="4.807"/>
				</g>
				<g id="XMLID_2562_">
					<rect id="XMLID_2564_" x="102.464" y="166.056" fill="#ADB3BA" width="5.33" height="5.33"/>
					<rect id="XMLID_2563_" x="102.464" y="166.056" fill="#FFFFFF" width="5.33" height="4.807"/>
				</g>
				<g id="XMLID_2559_">
					<rect id="XMLID_2561_" x="108.845" y="166.056" fill="#ADB3BA" width="5.33" height="5.33"/>
					<rect id="XMLID_2560_" x="108.845" y="166.056" fill="#FFFFFF" width="5.33" height="4.807"/>
				</g>
				<g id="XMLID_2556_">
					<rect id="XMLID_2558_" x="115.225" y="166.056" fill="#ADB3BA" width="5.33" height="5.33"/>
					<rect id="XMLID_2557_" x="115.225" y="166.056" fill="#FFFFFF" width="5.33" height="4.807"/>
				</g>
				<g id="XMLID_2553_">
					<rect id="XMLID_2555_" x="121.606" y="166.056" fill="#ADB3BA" width="5.33" height="5.33"/>
					<rect id="XMLID_2554_" x="121.606" y="166.056" fill="#FFFFFF" width="5.33" height="4.807"/>
				</g>
			</g>
			<rect id="XMLID_2515_" x="76.941" y="166.056" fill="#FFFFFF" width="30.853" height="4.807"/>
		</g>
		<g id="XMLID_2592_">
			<path id="XMLID_2623_" fill="#2B3B4E" d="M153.191,78.859V56.793c0-3.969-15.227-5.975-28.537-6.042
				c-13.345,0.067-28.571,2.074-28.571,6.042v22.066H153.191z"/>
			<path id="XMLID_2671_" fill="#324A5E" d="M170.058,52.599l-16.484,3.204l-28.626,5.561c-0.189,0.031-0.39,0.031-0.59,0
				l-27.895-5.416c-13.956-2.718-0.535-0.106-17.239-3.349c-0.755-0.151-0.755-0.716,0-0.854c19.541-3.793-5.793,1.134,45.111-8.771
				c0.177-0.031,0.389-0.031,0.59,0l45.134,8.771C170.802,51.883,170.802,52.448,170.058,52.599z"/>
		</g>
		<path id="XMLID_2610_" fill="#2B3B4E" d="M126.842,51.212c0,0.99-1.432,1.782-3.199,1.782c-1.752,0-3.184-0.792-3.184-1.782
			s1.432-1.782,3.184-1.782C125.411,49.429,126.842,50.222,126.842,51.212z"/>
		<g id="XMLID_2606_">
			<g id="XMLID_2607_">
				<path id="XMLID_2608_" fill="#E7EAEF" d="M163.594,79.008c-0.149,0.248-0.43,0.397-0.711,0.397H157
					c-0.281,0-0.545-0.149-0.694-0.397c-0.148-0.248-0.165-0.545-0.033-0.793l2.842-5.684V55.088l-35.709-3.338
					c-0.463-0.05-0.793-0.446-0.744-0.909c0.033-0.446,0.463-0.793,0.892-0.744l36.469,3.421c0.43,0.033,0.744,0.397,0.744,0.826
					v18.153l2.859,5.717C163.759,78.462,163.742,78.76,163.594,79.008z"/>
			</g>
		</g>
	</g>
</g>
</svg>
