<?xml version="1.0" encoding="utf-8"?>
<!-- Generator: Adobe Illustrator 18.0.0, SVG Export Plug-In . SVG Version: 6.00 Build 0)  -->
<!DOCTYPE svg PUBLIC "-//W3C//DTD SVG 1.1//EN" "http://www.w3.org/Graphics/SVG/1.1/DTD/svg11.dtd">
<svg version="1.1" id="Layer_1" xmlns="http://www.w3.org/2000/svg" xmlns:xlink="http://www.w3.org/1999/xlink" x="0px" y="0px"
	 viewBox="0 0 232 232" enable-background="new 0 0 232 232" xml:space="preserve">
<g>
	<g id="XMLID_3513_">
		<g id="XMLID_3655_">
			<path id="XMLID_3666_" fill="#E7EAEF" d="M66.635,126.544v20.833h91.157c1.832,0,3.55-0.47,5.058-1.313
				c9.663-5.332,5.404-19.52-5.058-19.52C157.792,126.544,66.635,126.544,66.635,126.544z"/>
		</g>
		<polygon id="XMLID_3654_" fill="#54C0EB" points="147.249,140.388 142.484,137.956 137.719,140.388 137.719,126.897 
			147.249,126.897 		"/>
		<g id="XMLID_3652_">
			<path id="XMLID_3547_" fill="#FFD05B" d="M63.593,148.995c-0.894,0-1.621-0.727-1.621-1.621c0-0.893,0.727-1.619,1.621-1.619
				h94.205c4.855,0,8.805-3.943,8.805-8.789c0-4.856-3.949-8.805-8.805-8.805H63.593c-0.894,0-1.621-0.727-1.621-1.62
				c0-0.893,0.727-1.619,1.621-1.619h94.205c6.642,0,12.044,5.403,12.044,12.044c0,6.632-5.402,12.028-12.044,12.028H63.593V148.995
				z"/>
		</g>
	</g>
	<g id="XMLID_3680_">
		<g id="XMLID_3685_">
			<path id="XMLID_3764_" fill="#E7EAEF" d="M165.179,150.21v20.833c-98.923,0-92.892,0.545-96.215-1.313
				c-9.629-5.313-5.446-19.52,5.058-19.52L165.179,150.21L165.179,150.21z"/>
		</g>
		<polygon id="XMLID_3684_" fill="#F9533D" points="84.565,164.055 89.194,161.623 93.823,164.055 93.823,150.564 84.565,150.564 		
			"/>
		<g id="XMLID_3681_">
			<path id="XMLID_3683_" fill="#324A5E" d="M168.221,172.66c0.894,0,1.621-0.727,1.621-1.621c0-0.893-0.727-1.619-1.621-1.619
				H74.016c-4.855,0-8.804-3.943-8.804-8.789c0-4.855,3.949-8.805,8.804-8.805h94.205c0.894,0,1.621-0.727,1.621-1.62
				s-0.727-1.619-1.621-1.619H74.016c-6.642,0-12.044,5.403-12.044,12.044c0,6.632,5.403,12.028,12.044,12.028h94.205V172.66z"/>
		</g>
	</g>
	<g id="XMLID_3676_">
		<g id="XMLID_3533_">
			<g id="XMLID_3548_">
				<path id="XMLID_3632_" fill="#324A5E" d="M137.922,97.805c-0.582-0.468-0.667-1.318-0.2-1.901l0,0
					c0.477-0.573,1.327-0.659,1.909-0.19l0,0c0.573,0.477,0.659,1.327,0.182,1.899l0,0c-0.02,0.038-0.058,0.076-0.087,0.105l0,0
					C139.24,98.205,138.458,98.243,137.922,97.805z M140.415,94.625c-0.621-0.41-0.802-1.24-0.392-1.861l0,0
					c0.401-0.63,1.232-0.811,1.862-0.411l0,0c0.63,0.401,0.801,1.241,0.4,1.872l0,0c-0.047,0.085-0.114,0.152-0.181,0.22l0,0
					C141.665,94.883,140.968,94.969,140.415,94.625z M142.553,91.188c-0.668-0.343-0.936-1.145-0.611-1.814l0,0
					c0.325-0.668,1.136-0.945,1.814-0.61l0,0c0.669,0.324,0.936,1.145,0.601,1.804c0,0-0.001-0.001,0.01,0.01l0,0
					c-0.076,0.133-0.153,0.248-0.257,0.352l0,0C143.709,91.331,143.078,91.446,142.553,91.188z M144.281,87.512
					c-0.707-0.248-1.06-1.021-0.812-1.728l0,0c0.258-0.697,1.022-1.059,1.729-0.811l0,0c0.697,0.257,1.069,1.03,0.812,1.727l0,0
					c-0.067,0.201-0.172,0.363-0.316,0.507l0,0C145.34,87.561,144.797,87.703,144.281,87.512z M145.589,83.685
					c-0.726-0.172-1.183-0.898-1.012-1.623l0,0c0.172-0.725,0.907-1.174,1.633-1.002l0,0c0.725,0.172,1.174,0.907,0.992,1.623l0,0
					c-0.048,0.258-0.181,0.468-0.352,0.64l0,0C146.525,83.646,146.057,83.789,145.589,83.685z M146.448,79.731
					c-0.744-0.096-1.269-0.773-1.184-1.508l0,0c0.095-0.745,0.763-1.26,1.509-1.184l0,0c0.744,0.096,1.269,0.773,1.184,1.508l0,0
					c0,0,0,0-0.01,0.01l0,0c-0.038,0.305-0.181,0.582-0.381,0.782l0,0C147.279,79.626,146.878,79.779,146.448,79.731z
					 M146.859,75.693c-0.745,0.001-1.337-0.611-1.337-1.356l0,0c0-0.744,0.621-1.346,1.356-1.337l0,0
					c0.754,0.01,1.346,0.62,1.346,1.365l0,0c0,0.363-0.163,0.697-0.401,0.936l0,0C147.575,75.549,147.231,75.703,146.859,75.693z
					 M146.82,71.645c-0.744,0.076-1.403-0.448-1.479-1.194l0,0c-0.077-0.744,0.458-1.412,1.202-1.489l0,0
					c0.745-0.077,1.404,0.468,1.49,1.203l0,0c0.038,0.42-0.115,0.821-0.392,1.098l0,0C147.432,71.473,147.145,71.607,146.82,71.645z
					 M146.334,67.626c-0.736,0.163-1.452-0.305-1.604-1.03l0,0c-0.172-0.726,0.296-1.442,1.031-1.604l0,0
					c0.726-0.152,1.442,0.296,1.605,1.031l0,0l0,0l0,0c0.104,0.468-0.048,0.927-0.364,1.242l0,0
					C146.821,67.445,146.591,67.579,146.334,67.626z M145.388,63.683c-0.706,0.248-1.47-0.133-1.709-0.831l0,0
					c-0.239-0.716,0.144-1.48,0.84-1.718l0,0c0.707-0.248,1.471,0.134,1.719,0.84l0,0l0,0l0,0c0.162,0.505,0.029,1.04-0.325,1.393
					l0,0C145.77,63.511,145.589,63.616,145.388,63.683z M144.014,59.883c-0.678,0.316-1.48,0.029-1.795-0.648l0,0
					c-0.324-0.669-0.028-1.481,0.649-1.795l0,0c0.667-0.325,1.47-0.038,1.785,0.64l0,0c0.258,0.524,0.134,1.145-0.257,1.536l0,0
					C144.29,59.722,144.167,59.807,144.014,59.883z M142.21,56.246c-0.621,0.392-1.461,0.201-1.852-0.439l0,0
					c-0.401-0.63-0.201-1.461,0.439-1.852l0,0c0.63-0.401,1.461-0.201,1.852,0.439l0,0c0.343,0.535,0.247,1.223-0.192,1.662l0,0
					C142.391,56.122,142.305,56.188,142.21,56.246z M140.014,52.847c-0.582,0.468-1.433,0.363-1.9-0.22l0,0
					c-0.459-0.591-0.354-1.441,0.229-1.909l0,0c0.582-0.449,1.441-0.353,1.899,0.24l0,0c0.421,0.534,0.373,1.307-0.104,1.785l0,0
					C140.1,52.78,140.061,52.819,140.014,52.847z M137.455,49.716c-0.544,0.524-1.394,0.515-1.919-0.01l0,0
					c-0.516-0.534-0.525-1.385,0.019-1.909l0,0c0.525-0.525,1.384-0.525,1.9,0.009l0,0C137.98,48.332,137.98,49.191,137.455,49.716
					L137.455,49.716L137.455,49.716z M132.653,47.09c-0.583-0.468-0.669-1.317-0.201-1.9l0,0c0.467-0.582,1.317-0.668,1.9-0.2l0,0
					c0.583,0.467,0.669,1.317,0.201,1.9l0,0c-0.038,0.038-0.067,0.067-0.105,0.105l0,0C133.97,47.473,133.187,47.529,132.653,47.09z
					 M129.493,44.808c-0.63-0.401-0.812-1.231-0.42-1.852l0,0c0.41-0.64,1.241-0.821,1.87-0.42l0,0
					c0.63,0.401,0.812,1.232,0.411,1.862l0,0c-0.048,0.085-0.124,0.161-0.191,0.228l0,0
					C130.724,45.066,130.037,45.162,129.493,44.808z M126.094,42.918c-0.678-0.333-0.955-1.145-0.63-1.814l0,0
					c0.324-0.668,1.136-0.945,1.813-0.611l0,0c0.678,0.315,0.945,1.117,0.62,1.805l0,0c-0.067,0.124-0.153,0.248-0.258,0.353l0,0
					C127.239,43.052,126.628,43.167,126.094,42.918z M122.495,41.4c-0.697-0.238-1.069-1.012-0.821-1.718l0,0
					c0.248-0.707,1.021-1.079,1.728-0.812l0,0c0.696,0.239,1.068,1.013,0.82,1.719l0,0c-0.067,0.181-0.171,0.362-0.305,0.497l0,0
					C123.554,41.448,123.001,41.582,122.495,41.4z M118.761,40.322c-0.725-0.172-1.183-0.898-1.012-1.623l0,0
					c0.172-0.725,0.897-1.183,1.623-1.011l0,0c0.725,0.171,1.174,0.887,1.012,1.623l0,0c-0.057,0.248-0.191,0.477-0.362,0.648l0,0
					C119.707,40.274,119.23,40.426,118.761,40.322z M114.924,39.654L114.924,39.654c-0.735-0.086-1.269-0.755-1.174-1.499l0,0
					c0.077-0.745,0.745-1.28,1.49-1.184l0,0l0,0l0,0c0.735,0.086,1.269,0.755,1.184,1.489l0,0c-0.038,0.324-0.182,0.601-0.382,0.802
					l0,0C115.754,39.548,115.353,39.701,114.924,39.654z M111.038,39.415c-0.744,0-1.346-0.602-1.346-1.346l0,0
					c0-0.745,0.602-1.347,1.346-1.346l0,0c0.745,0,1.356,0.61,1.356,1.356l0,0c-0.009,0.372-0.152,0.706-0.401,0.955l0,0
					C111.754,39.272,111.411,39.424,111.038,39.415z M107.143,39.625c-0.735,0.086-1.404-0.449-1.48-1.193l0,0
					c-0.096-0.744,0.449-1.404,1.184-1.49l0,0c0.744-0.076,1.413,0.458,1.499,1.193l0,0c0.038,0.42-0.115,0.821-0.401,1.107l0,0
					C107.745,39.443,107.458,39.596,107.143,39.625z M103.295,40.265c-0.725,0.172-1.441-0.296-1.604-1.013l0,0
					c-0.162-0.735,0.296-1.46,1.012-1.623l0,0c0.735-0.162,1.461,0.296,1.614,1.021l0,0c0.105,0.469-0.039,0.937-0.354,1.252l0,0
					C103.783,40.083,103.564,40.207,103.295,40.265z M99.553,41.334L99.553,41.334c-0.706,0.248-1.47-0.133-1.718-0.84l0,0
					c-0.239-0.697,0.133-1.47,0.831-1.709l0,0c0.706-0.248,1.48,0.124,1.728,0.831l0,0c0.163,0.506,0.028,1.041-0.324,1.393l0,0
					C99.926,41.152,99.753,41.267,99.553,41.334z M95.954,42.814c-0.678,0.334-1.48,0.048-1.805-0.62l0,0
					c-0.315-0.678-0.038-1.49,0.63-1.814l0,0l0,0l0,0c0.677-0.315,1.48-0.029,1.804,0.639l0,0c0.257,0.526,0.134,1.146-0.258,1.538
					l0,0C96.221,42.661,96.098,42.747,95.954,42.814z M92.546,44.694c-0.64,0.412-1.47,0.21-1.872-0.419l0,0
					c-0.392-0.621-0.201-1.461,0.43-1.862l0,0c0.63-0.401,1.46-0.201,1.861,0.429l0,0c0.335,0.543,0.249,1.241-0.181,1.671l0,0
					C92.708,44.589,92.631,44.647,92.546,44.694z M89.366,46.957c-0.582,0.467-1.432,0.362-1.9-0.22l0,0
					c-0.458-0.573-0.372-1.422,0.211-1.891l0,0c0.582-0.468,1.441-0.372,1.9,0.22l0,0c0.439,0.536,0.382,1.318-0.095,1.795l0,0
					C89.443,46.9,89.404,46.919,89.366,46.957z M84.555,49.554c-0.525-0.525-0.525-1.385,0-1.909l0,0
					c0.525-0.525,1.384-0.525,1.909,0l0,0c0.525,0.525,0.525,1.384,0,1.909l0,0C85.939,50.079,85.08,50.079,84.555,49.554z"/>
			</g>
			<g id="XMLID_3536_">
				<path id="XMLID_3628_" fill="#324A5E" d="M137.301,100.393c-14.536,14.536-38.193,14.53-52.735-0.012
					s-14.548-38.199-0.012-52.735l1.909,1.909C72.98,63.038,72.986,84.981,86.476,98.471s35.433,13.495,48.916,0.012
					L137.301,100.393z"/>
			</g>
			<g id="XMLID_3625_">
				<path id="XMLID_3626_" fill="#324A5E" d="M141.22,103.181c-1.364,1.364,2.114,4.024-59.454-57.545
					c-0.527-0.527-0.528-1.382,0-1.909c0.528-0.528,1.382-0.527,1.909,0l57.545,57.545
					C141.747,101.799,141.747,102.654,141.22,103.181z"/>
			</g>
			<g id="XMLID_3690_">
				<path id="XMLID_3763_" fill="#84DBFF" d="M79.982,73.999c0.003,17.073,13.894,30.964,30.964,30.966
					c17.075-0.001,30.957-13.894,30.959-30.965c0.001-17.071-13.884-30.962-30.961-30.961C93.874,43.04,79.985,56.929,79.982,73.999
					z"/>
				<g id="XMLID_3693_">
					<g id="XMLID_3761_">
						<path id="XMLID_3762_" fill="#54C0EB" d="M120.815,44.803c0.065,0.025,0.132,0.088,0.145,0.142
							c0.014,0.056,0.227,0.082,0.277,0.083c0.052,0.004,1.11,0.388,2.295,0.897c1.178,0.507,4.137,2.273,4.198,2.383
							c0.06,0.114,0.363,0.558,0.439,0.842c0.069,0.277,0.289,1.008,0.214,1.094c-0.073,0.088-0.456,0.387-0.883,0.3l-0.832,0.085
							c-0.179,0.155-0.612,0.278-0.964,0.279c-0.345-0.001-1.214-0.027-1.264-0.192c-0.052-0.167-0.676-0.648-1.172-0.792
							l-0.549-0.465c0.197-0.11,0.22-0.202,0.039-0.204c-0.176,0.001-0.467-0.336-0.543-0.496c-0.082-0.162-0.02-0.6-0.219-0.675
							c-0.197-0.075-0.794-0.418-0.872-0.597c-0.079-0.176-0.338-0.713-0.485-0.721c-0.142-0.009-0.344-0.513-0.354-0.905
							C120.278,45.473,120.749,44.78,120.815,44.803z"/>
					</g>
					<g id="XMLID_3759_">
						<path id="XMLID_3760_" fill="#54C0EB" d="M95.568,100.722c-2.431-1.554-4.396-2.875-4.365-2.938
							c0.032-0.065-0.015-0.332-0.173-0.441c-0.161-0.111-0.084-0.737,0.057-0.752c0.136-0.015,0.089-0.26-0.233-0.359
							c-0.32-0.096-0.823,0.146-0.907,0.109c-0.084-0.041-0.373-0.126-0.292-0.248c0.083-0.118,0.273-0.715,0.5-0.846
							c0.225-0.131,0.775-0.509,0.892-0.409c0.12,0.103,0.399-0.167,0.264-0.279c-0.136-0.111-0.609-0.234-0.628-0.134
							c-0.014,0.102-0.52,0.345-1.048,0.35c-0.525,0.004-1.272-0.633-1.2-0.759c0.075-0.123,0.441-0.403,0.273-0.677
							c-0.174-0.274,0.389-0.571,0.335-0.734c-0.054-0.16,0.025-0.815,0.087-0.915c0.059-0.097,0.491-0.271,0.492-0.444
							c0.001-0.171,0.123-0.683,0.281-0.759c0.152-0.077,0.617-0.212,0.686-0.13c0.064,0.077,0.428,0.04,0.511-0.118
							c0.081-0.159,0.314-0.648,0.436-0.655c0.119-0.009,0.222-0.261,0.319-0.211c0.1,0.05,0.584,0.095,0.631,0.188
							c0.041,0.094,0.299,0.237,0.176,0.357c-0.126,0.121-0.167,0.548-0.055,0.475c0.112-0.075,0.678-0.103,0.869-0.012
							c0.197,0.089,0.783,0.19,0.545,0.493c-0.242,0.308-0.764,1.395-0.753,1.633c0.01,0.237-0.518,0.042-0.826-0.636
							c0,0,0,0-0.885-0.105c-0.52-0.057-0.52-0.057-0.52-0.057c-0.177,0.26-0.405,0.615-0.508,0.79
							c-0.099,0.172,0.121,0.62,0.039,0.763c-0.075,0.145-0.058,0.579-0.006,0.472c0.052-0.108,0.437-0.288,0.64-0.256
							c0.203,0.032,0.915,0.235,1,0.469c0.091,0.236,0.382,1.098,0.457,1.063c0.071-0.032,0.466,0.117,0.617,0.313
							c0.146,0.194,0.842,0.686,1.016,0.818c0.262,0.195,0.848,0.855,1.013,0.553c0.067-0.134,0.828-0.261,0.958-0.488
							c0.137-0.233,0.558-0.795,0.497-0.883c-0.064-0.087,0.157-0.299,0.053-0.353c-0.1-0.057,0.301-0.355,0.6-0.404
							c0.299-0.05,0.64-0.354,0.314-0.398c-0.327-0.047-0.832-0.368-0.803-0.283c0.027,0.085-0.287,0.158-0.278,0.034
							c0.01-0.119-0.367-0.457-0.804-0.527c-0.432-0.07-2.03-0.035-2.078-0.11c-0.047-0.071,0.071-0.436,0.192-0.502
							c0.128-0.063,0.039-0.476,0.222-0.584c0.177-0.101,0.217-0.737,0.438-0.732c0.226-0.004,0.816-0.118,0.831-0.259
							c0.012-0.14-0.003-0.48-0.123-0.493c-0.116-0.012-0.17-0.176,0.089-0.294c0.259-0.117,0.819-0.614,0.921-0.605
							c0.105,0.003,0.413-0.021,0.551-0.166c0.141-0.149,0.78-0.324,0.72-0.414c-0.065-0.09,0.296-0.366,0.523-0.376
							c0.224-0.009,1.316-0.035,1.503-0.099c0.184-0.069,0.51-0.49,0.664-0.479c0.157,0.012,0.494,0.116,0.414,0.288
							c-0.08,0.171,0.08,0.434,0.004,0.459c-0.082,0.028-0.29,0.154-0.234,0.279c0.059,0.119-0.218,0.447-0.507,0.261
							c-0.286-0.189-1-0.374-0.792-0.117c0.21,0.261,0.054,0.944,0.146,0.904c0.081-0.042,0.48,0.092,0.521,0.25
							c0.042,0.154,0.502,0.232,0.615,0.104c0.113-0.132,0.511-0.329,0.66-0.127c0.142,0.195,0.424,0.709,0.385,0.633
							c-0.039-0.077-0.328,0.174-0.229,0.47c0.102,0.29,0.622,0.853,0.716,0.785c0.093-0.07,0.625,0.072,0.715,0.264
							c0.085,0.189,0.475,0.792,0.658,0.919c0.181,0.126,1.033,0.04,1.07,0.114c0.047,0.08,0.13,0.36,0.228,0.334
							c0.102-0.029,0.687,0.311,0.864,0.632c0.179,0.32,1.225,0.714,1.336,0.666c0.698-0.34,1.499-0.013,1.41,0.165
							c-0.105,0.213-0.969,0.507-1.062,0.708c-0.09,0.207-0.152,0.896-0.098,0.925c0.051,0.032,0.174,0.2,0.056,0.385
							c-0.118,0.188-0.066,1.028,0.039,1.181c0.103,0.154,0.992,0.773,1.842,0.929c0.851,0.154,1.311-1.154,1.117-1.216
							c-0.194-0.06-0.592-0.42-0.574-0.567c0.017-0.145,0.197-0.721,0.482-0.665c0.286,0.057,1.062-0.032,1.078-0.317
							c0.017-0.29,0.757-0.662,1.128-0.594c0.369,0.063,1.174-0.227,1.078-0.35c-0.098-0.126-0.256-0.593-0.197-0.714
							c0.059-0.123,0.365-0.344,0.206-0.526c-0.162-0.187-0.83-0.59-0.872-0.705c-0.039-0.118-0.196-0.364-0.088-0.442
							c0.113-0.076,0.182-0.399,0.052-0.42c-0.127-0.021-0.007-0.506,0.132-0.666c0.146-0.161,0.657-0.471,0.604-0.52
							c-0.051-0.048-0.019-0.425,0.128-0.674c1.127-1.861,0.923-0.669,2.045-2.38c0.276-0.421,1.123-0.548,1.189-0.645
							c0.068-0.096,0.178-0.618,0.246-0.824c0.07-0.205,0.48-0.659,0.477-0.792c0.001-0.132,0.07-0.655,0.154-0.867
							c0.089-0.211,0.49-0.62,0.395-0.711c-0.094-0.093,0.341-0.447,0.694-0.563c0,0,0.759,0,0.735,0
							c0.716,0.185,0.725,0.022,1.387,0.604c0.121,0.1,0.655,0.256,0.697,0.298c0.045,0.039,0.161,0.251,0.294,0.267
							c0.139,0.014,0.7,0.212,1.114,0.258c0.419,0.044,1.578,0.225,1.634,0.344c0.05,0.121,0.382,0.784,0.523,0.872
							c0.136,0.088,0.597,0.357,0.751,0.359c0.154-0.001,0.681,0.144,0.822,0.322c0.146,0.177,1.018,0.379,1.103,0.477
							c0.084,0.092,0.449,0.273,0.45,0.332c0.001,0.06,0.116,0.23,0.117,0.381c0,0.148,0.145,0.493,0.322,0.415
							c0.182-0.08,1.007,0.063,1.149,0.225c0.143,0.16,0.458,0.871,0.747,0.91c0.285,0.034,0.617,0.694,0.981,0.616
							c0.365-0.079,1.098,0.055,1.18-0.045c0.08-0.098,0.688-0.09,0.814-0.049c0.129,0.042,0.373,0.418,0.526,0.513
							c0.154,0.098,0.848,0.048,0.9-0.059c0.056-0.108,0.601-0.189,0.711-0.283c0.113-0.093,0.318-0.281,0.365-0.078
							c0.048,0.213,0.095,0.839,0.017,0.935c-0.077,0.097-0.207,0.418-0.207,0.418c-0.008,0.011-0.081,0.054-0.154,0.086
							c-0.072,0.031-0.55,0.116-0.803,0.203c-0.252,0.083-0.997,0.485-1.301,0.515c-0.307,0.028-1.531,0.173-1.719,0.198
							c-0.184,0.027-0.647-0.074-0.671,0.024c-0.025,0.091-0.494-0.103-0.566-0.271c-0.072-0.162-0.668-0.129-0.612-0.03
							c0.059,0.099-0.706,0.342-1.3,0.357c-0.589,0.011-1.778-0.477-2.162-0.396c-0.378,0.073-1.325-0.127-1.436-0.106
							c-0.113,0.016-0.38,0.144-0.5,0.119c-0.124-0.027-0.645-0.084-0.96,0.008c-0.318,0.085-1.281,0.519-1.484,0.727
							c-0.2,0.206-0.793,0.734-0.879,0.692c-0.087-0.039-0.581,0.19-0.744,0.466c-0.167,0.278-1.284,0.333-1.3,0.217
							c-0.021-0.12-0.269-0.183-0.337-0.033c-0.07,0.15-0.549,0.495-0.781,0.55c-0.233,0.057-1.401-0.2-1.562-0.329
							c-0.165-0.124-0.966-0.23-1.035-0.286c-0.204-0.174-1.409,0.234-1.289,0.312c0.089,0.056,0.146,0.346-0.064,0.526
							c-0.218,0.179-0.52,0.913-0.584,0.915c-0.239,0-0.908,0.644-0.953,0.739c-0.054,0.116-0.135,0.675-0.279,0.752
							c-0.147,0.081-0.659,0.612-0.754,1.03c-0.098,0.422-0.643,1.723-0.906,1.859c-0.264,0.132-1.492,0.277-1.681,0.419
							c-0.192,0.141-0.716,0.574-0.831,0.566c-0.116-0.003-0.018,0.167,0.136,0.106c0.154-0.059,0.75-0.031,0.693,0.052
							c-0.057,0.088-0.243,0.537-0.525,0.619c-0.279,0.08-0.773,0.579-0.867,0.582c-0.097,0.005-0.467-0.037-0.802,0.051
							c-0.336,0.092-1.119,0.493-1.165,0.539C105.438,104.396,98.005,102.277,95.568,100.722z"/>
					</g>
					<g id="XMLID_3757_">
						<path id="XMLID_3758_" fill="#54C0EB" d="M87.331,93.82c-0.034,0.131-0.675-0.568-1.427-1.559
							c-0.752-0.987-2.421-3.874-2.409-3.957c0.01-0.083,0.294,0.032,0.396,0.256c0.104,0.218,0.489,0.803,0.572,0.767
							c0.084-0.037,0.492,0.202,0.546,0.365c0.055,0.159,0.495,0.582,0.623,0.777c0.124,0.192,0.398,1,0.587,1.141
							c0.192,0.144,0.992,0.369,0.991,0.502c0.001,0.131-0.014,0.369-0.041,0.235c-0.026-0.133,0.369-0.133,0.48-0.097
							c0.106,0.04,0.217,0.627,0.28,0.981c0.064,0.357,0.194,1.439,0.136,1.459c-0.058,0.015-0.2,0.06-0.261-0.013
							c-0.061-0.07-0.18-0.398-0.12-0.563C87.741,93.944,87.361,93.684,87.331,93.82z"/>
					</g>
					<g id="XMLID_3755_">
						<path id="XMLID_3756_" fill="#54C0EB" d="M93.784,48.414c1.509-0.948,2.808-1.645,2.897-1.556
							c0.089,0.091,0.488,0.124,0.553-0.014c0.066-0.133,0.151-0.59,0.351-0.683c0.198-0.096,1.013-0.377,1.364-0.424
							c0.348-0.05,1.529,0.139,1.805,0.303c0.28,0.159,1.124,0.669,1.199,0.833c0.068,0.169,0.864,0.454,1.479,0.369
							c0.625-0.086,1.584,0.606,1.493,0.778c-0.09,0.167-0.91,0.315-1.037,0.452c-0.127,0.143-0.482,0.349-0.328,0.325
							c0.154-0.022,0.502,0.28,0.578,0.307c0.079,0.027,0.17,0.291,0.254,0.33c0.091,0.038,0.549-0.022,0.672-0.086
							c0.124-0.066,0.518-0.317,0.689-0.343c0.171-0.026,0.69-0.232,1.017-0.195c0.332,0.039,1.127,0.273,1.169,0.314
							c0.045,0.037,0.32,0.369,0.658,0.537c0.34,0.165,1.189,0.867,1.18,1.158c-0.01,0.294,0.51,0.533,0.515,0.449
							c0.009-0.09,0.255-0.226,0.441-0.191c0.177,0.034,0.955,0.382,1.644,0.414c0.688,0.037,1.321,1.075,1.216,1.081
							c-0.3,0.023-1.079,0.931-0.793,1c0.192,0.043,0.877,0.023,1.049-0.093c0.167-0.121,0.737-0.628,0.983-0.775
							c0.247-0.151,1.037-0.016,0.776,0.281c-0.261,0.29-1.116,1.063-1.28,1.114c-0.401,0.113-1.359-0.049-1.57,0.034
							c-0.162,0.066-0.531,0.399-0.659,0.409c-0.131,0.009-0.487,0.087-0.477,0.337c0.007,0.254-0.452,0.546-0.536,0.504
							c-0.083-0.043-0.614,0.055-0.818,0.159c-0.212,0.108-0.654,0.582-0.584,0.767c0.07,0.185,0.446,0.713,0.558,0.865
							c0.114,0.145,0.854,0.27,0.966,0.306c0.118,0.037,0.108,0.452,0.199,0.454c0.086-0.002,0.322,0.06,0.324,0.133
							c-0.006,0.354,2.293,0.7,2.315,0.991c0.01,0.164-0.253,0.427-0.383,0.426c-1.007,0.022-0.958,0.424-1.917,0.673
							c-0.321,0.086-1.088,0.494-1.218,0.537c-0.123,0.041-0.64,0.143-0.676,0.281c-0.035,0.141-0.361,0.358-0.439,0.35
							c-0.077-0.011-0.426,0.09-0.831,0.431l0.168,0.926c-0.156,0.06-0.186,0.229-0.071,0.371c0.116,0.149,0.07,0.805-0.033,0.85
							c-0.101,0.045-0.684,0.317-0.998,0.554c-0.318,0.24-0.951,1.077-0.901,1.146c0.047,0.07,0.266,0.238,0.409,0.188
							c0.14-0.05,0.391-0.497,0.599-0.588c0.204-0.09,0.764-0.345,0.679-0.464c-0.08-0.118,0.085-0.706,0.299-0.83
							c0.209-0.124,0.921-0.315,1.042-0.213c0.118,0.112,0.862,0.254,1.004,0.418c0.143,0.16,0.436,0.749,0.55,0.768
							c0.112,0.017,0.431,0.479,0.622,0.846c0.191,0.37,0.355,1.505,0.029,1.639c-0.905,0.367-3.23,1.697-3.23,1.697
							c-0.239,0.045-0.51,0.31-0.343,0.28c0.166-0.025,0.767-0.049,0.891-0.167c0.125-0.125,0.672-0.515,0.883-0.653
							c0.22-0.136,1.355-0.36,1.561-0.599c0.204-0.245,1.196-0.636,1.195-0.803c0-0.172-0.099-0.705-0.213-0.809
							c-0.122-0.109,0.047-0.671,0.287-0.724c0.243-0.05,1.277,0.202,1.744,0.462c0.468,0.266,1.78,1.075,1.892,1.205
							c0.108,0.132,0.646,0.553,0.948,0.632c0.304,0.082,1.559,0.344,2.217,0.294c0.666-0.039,2.498,0.354,2.877,0.693
							c0.377,0.34,2.114,0.72,2.151,0.841c0.039,0.119,0.314,0.44,0.487,0.481c0.17,0.044,0.953,0.201,1.172,0.413
							c0.221,0.207,1.252,0.853,1.495,1.23c0.243,0.38,0.123,1.795-0.368,1.923c-0.494,0.129-1.685,0.694-1.884,0.692
							c-0.2-0.002-1.054,0.108-1.449,0.243c-0.395,0.137-1.549,0.653-1.961,0.608c-0.413-0.043-1.594-0.3-1.947-0.263
							c-0.35,0.038-1.34,0.416-1.701,0.505c-0.363,0.086-1.562,0.388-1.9,0.302c-0.342-0.088-1.524,0.047-1.488,0.168
							c0.203,0.64-0.299,1.44-0.528,1.449l-0.066,0.606c0.355,0.114,0.65,0.435,0.653,0.719c0.001,0.286-0.026,1.154-0.201,1.419
							c-0.177,0.264-0.919,1.064-1.254,1.194c-0.34,0.129-1.557,0.592-2.134,0.591c-0.576,0.001-2.289-0.113-2.523-0.249
							c-0.243-0.142-1.428-0.618-1.784-1.047c0.005,0-0.819-0.393-0.819-0.393c-0.725-0.095-1.379-0.317-1.465-0.492
							c-0.087-0.173-0.546-0.518-0.518-0.664c0.029-0.144,0.184-0.605,0.038-0.915c-0.15-0.308-0.301-1.613-0.401-1.863
							c-0.1-0.251-0.077-1.119,0.049-1.156c0.124-0.039,0.33,0.105,0.414,0.027c0.079-0.079,0.712-0.375,0.886-0.758
							c0.174-0.382,0.747-1.211,0.574-1.271c-0.173-0.062-0.373-0.845-0.327-1.376c0.044-0.533,0.207-1.766-0.034-1.829
							c-0.24-0.056-0.76-0.41-0.893-0.411c-0.131,0.001-0.327,0.022-0.137,0.051c0.193,0.022,0.164,0.446,0.044,0.419
							c-0.118-0.027-0.25,0.69-0.082,1.222l-0.449,0.544c-0.189,0.077-0.454,0.144-0.588,0.147
							c-0.134,0.005-0.721-0.055-0.722-0.003c0.002,0.054,0.236,0.192,0.518,0.174c0.288-0.024,0.937,0.002,0.951-0.159
							c0.007-0.163,0.46-0.095,0.452,0.069c-0.005,0.159-0.351,0.299-0.356,0.267c-0.005-0.034-0.105,0.091-0.093,0.251
							c0.014,0.164-0.251,0.429-0.382,0.431c-0.136,0-0.634,0.057-0.816,0.123c0,0,0,0-0.153,0.081
							c-0.103,0.062-0.385,0.148-0.481,0.212c-0.52,0.342-0.52,0.342-0.52,0.342c-0.446,0.493-0.571,0.678-0.286,0.415
							c0.29-0.268,1.083-0.683,0.978-0.591c-0.1,0.085,0.213,0.289,0.24,0.215c0.027-0.07,0.383,0.055,0.465,0.211
							c0.084,0.157,0.653,0.349,0.602,0.496c-0.049,0.143-0.508,0.141-0.505,0.002c0.007-0.135-0.409-0.17-0.605-0.057
							c-0.195,0.123-0.469,0.742-0.596,0.771c-0.122,0.023,0.025,0.181,0.375,0.088c0.345-0.097,0.391,0.549,0.022,0.629
							c-0.368,0.076-1.039-0.013-0.924,0.152c0.118,0.165,0.09,0.839,0.315,0.971c0.225,0.127,0.827,0.754,1.156,0.831
							c0.331,0.078,1.039,0.477,0.977,0.594c-0.062,0.122,0.035,0.71-0.064,0.833c-0.098,0.126-0.224,0.735-0.423,0.772
							c-0.205,0.038-0.934,0.114-1.19,0.088c-0.256-0.026-0.93-0.393-1.01-0.686c-0.077-0.292,0.071-1.068-0.013-1.123
							c-0.09-0.059-0.419-0.101-0.534,0.029c-0.116,0.123-0.743,0.315-0.734,0.477c0.014,0.161-0.237,0.365-0.353,0.29
							c-0.109-0.073-0.394-0.461-0.541-0.563c-0.149-0.101-0.239-0.671-0.267-0.705c-0.028-0.032-0.183,0.215-0.175,0.528
							c0.013,0.316,0.048,1.006-0.019,0.915c-0.07-0.091-0.365-0.286-0.52-0.204c-0.152,0.08-0.818-0.064-0.832-0.218
							c-0.02-0.158-0.474-0.178-0.493-0.098c-0.019,0.068-0.407,0.338-0.659,0.287c-0.254-0.051-1.179-0.114-1.255-0.237
							c-0.08-0.123-0.019-0.567,0.085-0.521c0.102,0.043,0.35,0.167,0.416,0.092c0.065-0.074,0.404-0.374,0.608-0.495
							c0.2-0.119,1.134-0.154,1.206-0.233c0.064-0.074,0.393-0.197,0.583-0.108c0.188,0.088,0.684,0.22,0.462,0.182
							c-0.222-0.035-0.319-0.679-0.46-0.711c-0.139-0.029-0.518-0.278-0.58-0.435c-0.064-0.153-0.222-0.65-0.34-0.653
							c-0.115-0.006-0.26,0.169-0.395,0.118c-0.132-0.053-0.609-0.153-0.619,0.045c-0.023,0.479-1.91,0.619-2.318,0.533
							c-0.352-0.075-0.759-0.793-0.844-0.791c-0.088,0-0.328-0.067-0.33-0.148c-0.005-0.078-0.047-0.276-0.259-0.416
							c-0.215-0.137-1.108-0.561-1.316-0.803c-0.21-0.237-0.874-0.862-0.92-0.935c-0.05-0.073-0.024-0.295-0.157-0.448
							c-0.138-0.148-0.48-0.697-0.481-0.866c0-0.169,0.1-0.704,0.223-0.809c0.12-0.104,0.546-0.476,0.596-0.661
							c0.055-0.184,0.493-0.836,0.612-1.25c0.125-0.415,0.869-0.625,0.719-0.805c-0.145-0.178-0.91-0.376-0.872-0.476
							c0.038-0.098,0.161-0.438,0.292-0.437c0.133-0.001,0.344-0.176,0.169-0.388c-0.168-0.211-0.558-1.105-0.589-1.409
							c-0.033-0.309,0.029-0.864-0.004-0.708c-0.038,0.16-0.597-0.022-0.513-0.207c0.083-0.187-0.093-1.174-0.317-1.379
							c-0.228-0.205-0.863-0.765-0.787-0.893c0.073-0.126,0.246-0.439,0.117-0.498c-0.131-0.06,0-0.507,0.164-0.502
							c0.162,0.008,0.341-0.156,0.228-0.215c-0.111-0.06-0.442-0.253-0.343-0.432c0.098-0.181,0.241-0.585,0.165-0.445
							c-0.074,0.139-0.621,0.166-0.67,0.055c-0.045-0.108-0.255-0.454-0.378-0.497c-0.127-0.045-0.429-0.33-0.485-0.447
							c-0.057-0.124-0.292-0.623-0.332-0.888c-0.044-0.266-0.335-0.803-0.25-0.86c0.087-0.057,0.076-0.355-0.078-0.413
							c-0.153-0.057-0.245-0.631-0.444-0.654c-0.2-0.022-0.401-0.354-0.295-0.452c0.106-0.1,0.304-0.649,0.316-0.902
							c0.012-0.258-0.033-0.886,0.102-1.015c0.134-0.13,0.691-0.321,0.805-0.251c0.11,0.072,0.61-0.173,0.708-0.599
							c0,0,0,0,0.056-0.25c0.026-0.136-0.042-0.292,0.001-0.414c0.084-0.243,0.084-0.243,0.084-0.243
							C88.722,52.66,92.283,49.362,93.784,48.414z"/>
					</g>
					<g id="XMLID_3753_">
						<path id="XMLID_3754_" fill="#54C0EB" d="M101.657,44.56c0.216-0.065,0.413-0.114,0.443-0.104
							c0.024,0.016,0.01,0.079-0.088,0.11c-0.095,0.033-0.062,0.328,0.099,0.422c0.157,0.09-0.218,0.414-0.425,0.363
							c-0.208-0.05-0.93-0.102-0.908-0.2C100.798,45.051,101.441,44.628,101.657,44.56z"/>
					</g>
					<g id="XMLID_3751_">
						<path id="XMLID_3752_" fill="#54C0EB" d="M112.91,47.976c0.016,0.08-0.103,0.083-0.258,0.006
							c-0.157-0.075-0.232-0.469-0.424-0.459c-0.187,0.008-0.452-0.225-0.393-0.345c0.055-0.121,0.536-0.331,0.585-0.502
							c0.044-0.165,0.665-0.032,0.703,0.183c0.034,0.213,0.342,0.568,0.254,0.604C113.29,47.501,112.891,47.895,112.91,47.976z"/>
					</g>
					<g id="XMLID_3749_">
						<path id="XMLID_3750_" fill="#54C0EB" d="M117.56,48.007c0.182-0.109,0.299-0.108,0.26,0.004
							c-0.039,0.105-0.208,0.469-0.103,0.535c0.103,0.061,0.131,0.189-0.361,0.305c-0.494,0.118-1.353-0.495-1.308-0.718
							c0.053-0.218,0.668-0.34,0.711-0.234C116.802,48.007,117.375,48.117,117.56,48.007z"/>
					</g>
					<g id="XMLID_3747_">
						<path id="XMLID_3748_" fill="#54C0EB" d="M117.019,49.247c0.252,0.048,0.651,0.396,0.677,0.362
							c0.024-0.037,0.092-0.065,0.116,0.029c0.022,0.096,0.197,0.269,0.045,0.423c-0.146,0.156-0.254,1.048-0.451,1.162
							c-0.197,0.115-1.053-0.042-1.305-0.472c-0.251-0.428-1.66-1.022-1.587-1.207c0.072-0.188,0.467-0.564,0.601-0.529
							C115.115,49.014,116.291,49.105,117.019,49.247z"/>
					</g>
					<g id="XMLID_3745_">
						<path id="XMLID_3746_" fill="#54C0EB" d="M118.722,52.301c-0.139-0.032-0.355-0.429-0.219-0.759
							C120.138,47.597,118.874,52.334,118.722,52.301z"/>
					</g>
					<g id="XMLID_3743_">
						<path id="XMLID_3744_" fill="#54C0EB" d="M109.14,48.855c0.163,0.11,0.171,0.231,0.019,0.274
							c-0.155,0.039-0.597,0.128-0.762,0.001C108.225,49.004,108.979,48.747,109.14,48.855z"/>
					</g>
					<g id="XMLID_3741_">
						<path id="XMLID_3742_" fill="#54C0EB" d="M110.284,48.438c0.063-0.288,0.278-0.457,0.472-0.381
							c0.195,0.08,0.635,0.374,0.517,0.498C111.155,48.682,110.216,48.723,110.284,48.438z"/>
					</g>
					<g id="XMLID_3739_">
						<path id="XMLID_3740_" fill="#54C0EB" d="M116.2,45.44c0.498,0.023,0.621,0.783,0.358,1.133
							C115.996,46.599,115.956,45.777,116.2,45.44z"/>
					</g>
					<g id="XMLID_3737_">
						<path id="XMLID_3738_" fill="#54C0EB" d="M105.314,45.346c0.138,0.278,0.228,0.541,0.19,0.588
							c-0.037,0.045,0.033,0.352,0.145,0.501c0.109,0.148,0.577,0.438,0.495,0.558c-0.088,0.118-0.578,0.105-0.576-0.007
							c0-0.113,0.023-0.289,0.049-0.129c0.029,0.157-0.404,0.081-0.543-0.101c-0.139-0.187-0.591-0.822-0.735-0.976
							c-0.15-0.153-0.511-0.658-0.57-0.663c-0.061-0.008-0.332-0.095-0.577-0.102c-0.241-0.008-1.005,0.049-1.007-0.026
							c0.002-0.076,0.353-0.315,0.779-0.364C103.392,44.57,105.171,45.064,105.314,45.346z"/>
					</g>
					<g id="XMLID_3735_">
						<path id="XMLID_3736_" fill="#54C0EB" d="M99.254,45.423c0.398-0.164,0.799-0.319,1.207-0.466
							C100.263,45.287,99.805,45.388,99.254,45.423z"/>
					</g>
					<g id="XMLID_3733_">
						<path id="XMLID_3734_" fill="#54C0EB" d="M115.307,54.109c-0.307,0.401-0.467,0.607-0.351,0.461
							c0.111-0.144-0.253-0.283-0.163-0.319c0.093-0.034,0.33-0.462,0.638-0.604c0.006,0,0.544-0.299,0.538-0.299
							c0.327-0.376,0.842-0.785,1.146-0.906c0.305-0.126,0.892,0.155,0.749,0.329C117.716,52.945,115.617,53.714,115.307,54.109z"/>
					</g>
					<g id="XMLID_3731_">
						<path id="XMLID_3732_" fill="#54C0EB" d="M113.729,58.546c-0.239-0.11-0.327-0.293-0.202-0.413
							c0.13-0.12,0.711-0.26,0.825-0.205C114.468,57.981,113.965,58.654,113.729,58.546z"/>
					</g>
					<g id="XMLID_3729_">
						<path id="XMLID_3730_" fill="#54C0EB" d="M122.565,65.893c0.286,0.05,0.539,0.138,0.571,0.189
							c0.032,0.052,0.281,0.113,0.39,0.113c0.882-0.006,1.755,0.484,1.806,0.66c0.043,0.133-0.156,0.599-0.403,0.623
							c-0.252,0.025-1.108,0.218-1.234,0.159c-0.131-0.058-0.591-0.162-0.709-0.112c-0.116,0.051-0.79-0.098-0.992-0.23
							c-0.2-0.131-0.674-0.737-0.91-0.801c-0.236-0.063-0.59-0.303-0.357-0.312C120.959,66.175,122.281,65.839,122.565,65.893z"/>
					</g>
					<g id="XMLID_3727_">
						<path id="XMLID_3728_" fill="#54C0EB" d="M134.077,89.285c-0.396,0.02-0.477-0.479,0.001-0.413
							C134.08,89.013,134.08,89.146,134.077,89.285z"/>
					</g>
					<g id="XMLID_3725_">
						<path id="XMLID_3726_" fill="#54C0EB" d="M94.877,85.516c0.51,0.424-0.054,0.313-0.061,1.016
							c-0.002,0.132-0.495,0.48-1.094,0.472c-0.609,0-1.78,0.619-1.903,0.486c-0.126-0.138-0.471-0.067-0.58-0.2
							c-0.111-0.133-0.473-0.292-0.559-0.065c-0.085,0.236-0.676,0.356-0.658,0.171c0.021-0.192-0.322-0.213-0.223-0.127
							c0.1,0.085-0.184,0.55-0.337,0.536c-0.433-0.054-1.673,0.267-1.712,0.602c-0.034,0.256-0.23,0.825-0.133,0.878
							c0.088,0.054,0.014,0.577-0.062,0.78c-0.074,0.202-0.607,0.256-0.625,0.009c-0.019-0.249-0.128-0.78-0.185-0.651
							c-0.053,0.126-0.096,0.601-0.18,0.742c-0.09,0.143,0.084,0.298-0.011,0.348c-0.097,0.054-0.191,0.319-0.327,0.19
							c-0.141-0.127-0.18-0.677-0.263-0.906c-0.087-0.227-0.457-0.604-0.468-0.464c-0.014,0.14-0.663-0.19-0.922-0.617
							c-0.253-0.425-0.632-2.057-0.639-2.362c-0.002-0.305-0.001-1.279-0.157-1.247c-0.161,0.031-0.612-0.123-0.672-0.335
							c-0.063-0.212-0.109-1.182-0.086-1.579c0.02-0.396-0.272-1.234-0.252-1.352c0.016-0.116,0.181-0.437,0.142-0.602
							c-0.039-0.168,0.075-0.861,0.075-1.142c0.002-0.283,0.406-0.508,0.475-0.242c0.063,0.264,0.658,0.394,0.571,0.207
							c-0.225-0.501,0.298-1.166,0.239-1.617c-0.024-0.167,0.43-0.081,0.467,0.073c0.103,0.393,0.683,1.088,0.714,1.073
							c0.099-0.05,0.615,0.06,0.701,0.141c0.077,0.081,0.131,0.286,0.185,0.07c0.052-0.223,0.632-0.275,0.637-0.094
							c0.004,0.185,0.533,0.495,1.052,0.374c0.515-0.119,1.062,0.566,1.144,0.487c0.089-0.08,0.532-0.002,0.482,0.069
							c-0.052,0.074-0.053,0.154,0.068,0.001c0.121-0.151,0.434,0.244,0.342,0.451c-0.089,0.21-0.263,0.812-0.198,0.867
							c0.07,0.055,0.242,0.143,0.383-0.052c0.14-0.199,0.098-0.441,0.246-0.284c0.145,0.161,0.831,0.5,0.992,0.702
							c0.16,0.205,0.502,0.951,0.588,1.049c0.092,0.096,0.383,0.434,0.447,0.553c0.069,0.118-0.015,0.645,0.116,0.684
							C93.47,84.883,94.206,84.934,94.877,85.516z"/>
					</g>
					<g id="XMLID_3723_">
						<path id="XMLID_3724_" fill="#54C0EB" d="M85.363,74.156c0.018-0.118,0.123-0.304,0.235-0.409
							c0.112-0.106,0.042-0.426,0.185-0.681c0.146-0.256,1.118-0.17,1.044,0.066c-0.078,0.235-0.271,0.754-0.028,0.818
							c0.244,0.062,0.895,0.322,0.897,0.479c0.008,0.156-0.382,0.36-0.404,0.51c-0.026,0.151-0.327,0.336-0.478,0.202
							c-0.152-0.136-0.709-0.158-0.581-0.016c0.121,0.138,0.183,0.68,0.101,0.685c-0.086,0.005-0.51,0.098-0.58,0.223
							c-0.075,0.134-0.606,0.052-0.767-0.225c-0.161-0.281,0.17-0.686,0.023-0.632c-0.14,0.057-0.393-0.372-0.316-0.581
							C84.768,74.385,85.34,74.273,85.363,74.156z"/>
					</g>
					<g id="XMLID_3721_">
						<path id="XMLID_3722_" fill="#54C0EB" d="M84.498,74.034c-0.103,0.004-0.174-0.38-0.159-0.861
							c0.016-0.475,0.296-1.736,0.401-1.631c0.107,0.097,0.482,0.566,0.414,0.987C85.089,72.948,84.599,74.027,84.498,74.034z"/>
					</g>
					<g id="XMLID_3719_">
						<path id="XMLID_3720_" fill="#54C0EB" d="M97.817,79.429c0.148-0.012,0.29,0.121,0.321,0.285
							c0.028,0.163,0.042,0.546-0.125,0.571c-0.175,0.024-0.621-0.032-0.573-0.145c0.049-0.113-0.441-0.287-0.439-0.379
							C96.999,79.668,97.667,79.435,97.817,79.429z"/>
					</g>
					<g id="XMLID_3717_">
						<path id="XMLID_3718_" fill="#54C0EB" d="M93.425,79.84c0.035,0.199-0.079,0.405-0.26,0.464
							c-0.176,0.058-0.26,0.558-0.376,0.491c-0.115-0.066-0.459-0.133-0.401-0.071c0.06,0.058-0.046,0.284-0.116,0.136
							c-0.072-0.149-0.627-0.223-0.51-0.314c0.112-0.096,0.289-0.585,0.301-0.742c0.011-0.161-0.008-0.818,0.155-0.899
							c0.165-0.09,0.92,0.063,0.939,0.202C93.171,79.246,93.388,79.643,93.425,79.84z"/>
					</g>
					<g id="XMLID_3715_">
						<path id="XMLID_3716_" fill="#54C0EB" d="M88.083,66.546c-0.652-0.591-1.07-2.251-1.07-2.251
							c-0.374-0.2-0.043-0.527,0.291-0.391c0.253,0.103,0.589,1.034,0.832,1.254c0.249,0.225,0.751,1.058,1.028,0.953
							c0.282-0.101,1.077-0.269,1.105-0.197c0.024,0.075,0.093,0.336-0.039,0.524c-0.129,0.197-0.594,0.627-0.719,0.549
							C89.377,66.906,88.234,66.682,88.083,66.546z"/>
					</g>
					<g id="XMLID_3713_">
						<path id="XMLID_3714_" fill="#54C0EB" d="M85.154,66.293c-0.619,0.037-0.884-0.915-0.118-0.925
							C84.984,65.756,85.527,65.949,85.154,66.293z"/>
					</g>
					<g id="XMLID_3711_">
						<path id="XMLID_3712_" fill="#54C0EB" d="M85.292,59.505c-0.138-0.01-0.28-0.36-0.308-0.776
							c-0.029-0.418,0.455-0.764,0.513-0.477C85.551,58.539,85.435,59.513,85.292,59.505z"/>
					</g>
					<g id="XMLID_3709_">
						<path id="XMLID_3710_" fill="#54C0EB" d="M93.336,93.594c0.084-0.041,0.022,0.123-0.14,0.363
							c-0.162,0.236,0.642,0.554,0.626,0.748c-0.017,0.195-0.537,0.283-0.638,0.179c-0.105-0.103-0.373-0.399-0.317-0.485
							C92.929,94.314,93.251,93.633,93.336,93.594z"/>
					</g>
					<g id="XMLID_3707_">
						<path id="XMLID_3708_" fill="#54C0EB" d="M110.519,91.971c-0.001-0.115,0.116-0.148,0.258-0.082
							c0.143,0.068,0.154,0.495,0.066,0.498C110.753,92.386,110.517,92.085,110.519,91.971z"/>
					</g>
					<g id="XMLID_3704_">
						<path id="XMLID_3705_" fill="#54C0EB" d="M110.082,94.28c0.043,0.207-0.065,0.486-0.239,0.622
							c-0.169,0.138-0.345,0.798-0.261,0.939c0.08,0.142,0.007,0.635-0.092,0.591c-0.105-0.045-0.419-0.357-0.418-0.64
							c-0.01-1.385,0.2-1.098,0.56-1.793c0.042-0.077,0.385-0.337,0.362-0.665c-0.019-0.328,0.743-0.587,0.714-0.39
							c-0.026,0.192,0.224,0.445,0.14,0.545c-0.089,0.098-0.192,0.587-0.317,0.633C110.399,94.174,110.039,94.077,110.082,94.28z"/>
					</g>
					<g id="XMLID_3702_">
						<path id="XMLID_3703_" fill="#54C0EB" d="M110.709,94.644c0.098-0.105,0.174-0.11,0.169-0.001
							c-0.003,0.099,0.049,0.529-0.035,0.528C110.756,95.172,110.616,94.756,110.709,94.644z"/>
					</g>
					<g id="XMLID_3700_">
						<path id="XMLID_3701_" fill="#54C0EB" d="M108.83,94.936c0.002,0.25-0.47,0.108-0.395-0.067
							C108.486,94.757,108.831,94.859,108.83,94.936z"/>
					</g>
					<g id="XMLID_3698_">
						<path id="XMLID_3699_" fill="#54C0EB" d="M108.687,94.328c-0.187,0.01-0.34-0.028-0.34-0.083s0.074-0.239,0.163-0.276
							C108.599,93.931,108.877,94.322,108.687,94.328z"/>
					</g>
					<g id="XMLID_3696_">
						<path id="XMLID_3697_" fill="#54C0EB" d="M109.391,93.698c0.093,0.245-0.551,0.118-0.472-0.065
							c0.046-0.112,0.388-0.301,0.374-0.406c-0.013-0.104,0.211-0.085,0.305,0.091C109.686,93.492,109.374,93.62,109.391,93.698z"/>
					</g>
					<g id="XMLID_3694_">
						<path id="XMLID_3695_" fill="#54C0EB" d="M118.47,44.107c0.398,0.107,0.617,0.194,0.492,0.193
							c-0.131,0.001-0.643,0.221-0.858,0.492c-0.212,0.272-0.758,1.068-0.684,1.205c0.074,0.139-0.171,0.188-0.219,0.096
							c-0.045-0.09-0.328-0.182-0.238-0.238c0.096-0.056,0.04-0.489-0.014-0.579c-0.049-0.09-0.268-0.361-0.266-0.492
							c-0.002-0.134,0.041-0.568,0.098-0.67C116.838,44.012,118.077,44.003,118.47,44.107z"/>
					</g>
				</g>
				<path id="XMLID_3692_" fill="#ADB3BA" d="M87.608,92.948c-0.03,0.03,0.065,0.155,0.119,0.1
					C87.768,93.026,87.672,92.899,87.608,92.948z"/>
				<path id="XMLID_3691_" fill="#ADB3BA" d="M97.831,89.518c-0.041,0.024,0.059,0.155,0.121,0.108
					C97.986,89.591,97.888,89.461,97.831,89.518z"/>
			</g>
		</g>
		<rect id="XMLID_3675_" x="107.227" y="109.738" fill="#324A5E" width="7.426" height="11.315"/>
		<path id="XMLID_3682_" fill="#324A5E" d="M130.397,122.519v2.403H91.485v-2.403c0-1.985,1.607-3.605,3.591-3.605h31.729
			C128.79,118.914,130.397,120.534,130.397,122.519z"/>
	</g>
</g>
</svg>
